<svg width="350" height="350" viewBox="0 0 350 350" fill="none" xmlns="http://www.w3.org/2000/svg">
<rect x="84.9207" y="50" width="31.746" height="100" fill="#82BC70"/>
<rect x="50" y="116.667" width="31.746" height="100" transform="rotate(-90 50 116.667)" fill="#82BC70"/>
<path fill-rule="evenodd" clip-rule="evenodd" d="M236.921 202H264.667V234.92H236.921V202ZM234.921 234.92V202V200H236.921H264.667H266.667V202V234.92H298H300V236.92V264.666V266.666H298H266.667V298V300H264.667H236.921H234.921V298V266.666H202H200V264.666V236.92V234.92H202H234.921ZM234.921 264.666H202V236.92H234.921V264.666ZM236.921 264.666V236.92H264.667V264.666H236.921ZM236.921 266.666V298H264.667V266.666H236.921ZM266.667 264.666H298V236.92H266.667V264.666Z" fill="#82BC70"/>
<mask maskUnits="userSpaceOnUse" x="0" y="0" width="0" height="0" fill="black">
<rect fill="white" width="0" height="0"/>
</mask>
<path d="M204.116 205.884L200.38 191.942L190.174 202.148L204.116 205.884ZM145.116 146.884L148.852 160.826L159.058 150.62L145.116 146.884ZM202.893 202.893L201.488 201.488L199.72 203.256L201.125 204.661L202.893 202.893ZM200.083 200.083L198.679 198.679L196.911 200.446L198.316 201.851L200.083 200.083ZM197.274 197.274L195.869 195.869L194.101 197.637L195.506 199.042L197.274 197.274ZM194.464 194.464L193.06 193.06L191.292 194.827L192.697 196.232L194.464 194.464ZM191.655 191.655L190.25 190.25L188.482 192.018L189.887 193.423L191.655 191.655ZM188.845 188.845L187.44 187.44L185.673 189.208L187.077 190.613L188.845 188.845ZM186.036 186.036L184.631 184.631L182.863 186.399L184.268 187.803L186.036 186.036ZM183.226 183.226L181.821 181.821L180.054 183.589L181.458 184.994L183.226 183.226ZM180.417 180.417L179.012 179.012L177.244 180.78L178.649 182.184L180.417 180.417ZM177.607 177.607L176.202 176.202L174.435 177.97L175.839 179.375L177.607 177.607ZM174.798 174.798L173.393 173.393L171.625 175.161L173.03 176.565L174.798 174.798ZM171.988 171.988L170.583 170.583L168.816 172.351L170.22 173.756L171.988 171.988ZM169.179 169.179L167.774 167.774L166.006 169.542L167.411 170.946L169.179 169.179ZM166.369 166.369L164.964 164.964L163.197 166.732L164.601 168.137L166.369 166.369ZM163.56 163.56L162.155 162.155L160.387 163.923L161.792 165.327L163.56 163.56ZM160.75 160.75L159.345 159.345L157.577 161.113L158.982 162.518L160.75 160.75ZM157.94 157.94L156.536 156.536L154.768 158.303L156.173 159.708L157.94 157.94ZM155.131 155.131L153.726 153.726L151.958 155.494L153.363 156.899L155.131 155.131ZM152.321 152.321L150.917 150.917L149.149 152.684L150.554 154.089L152.321 152.321ZM149.512 149.512L148.107 148.107L146.339 149.875L147.744 151.28L149.512 149.512Z" fill="white" mask="url(#)"/>
</svg>
