<svg width="350" height="350" viewBox="0 0 350 350" fill="none" xmlns="http://www.w3.org/2000/svg">
<mask id="path-1-inside-1" fill="white">
<rect x="86" y="68" width="177" height="214" rx="5"/>
</mask>
<rect x="86" y="68" width="177" height="214" rx="5" fill="#DF6D4D" fill-opacity="0.3" stroke="#DF6D4D" stroke-opacity="0.9" stroke-width="16" mask="url(#path-1-inside-1)"/>
<rect x="143" y="131" width="60.2542" height="5" rx="2" fill="white" fill-opacity="0.9"/>
<path d="M132.129 111.211V117H128.016V99.9375H134.824C136.129 99.9375 137.281 100.18 138.281 100.664C139.289 101.141 140.066 101.824 140.613 102.715C141.168 103.598 141.445 104.602 141.445 105.727C141.445 107.391 140.848 108.723 139.652 109.723C138.465 110.715 136.832 111.211 134.754 111.211H132.129ZM132.129 108.035H134.824C135.621 108.035 136.227 107.836 136.641 107.438C137.062 107.039 137.273 106.477 137.273 105.75C137.273 104.953 137.059 104.316 136.629 103.84C136.199 103.363 135.613 103.121 134.871 103.113H132.129V108.035ZM142.805 110.543C142.805 109.277 143.051 108.152 143.543 107.168C144.035 106.176 144.742 105.414 145.664 104.883C146.586 104.352 147.668 104.086 148.91 104.086C150.809 104.086 152.305 104.676 153.398 105.855C154.492 107.027 155.039 108.625 155.039 110.648V110.789C155.039 112.766 154.488 114.336 153.387 115.5C152.293 116.656 150.809 117.234 148.934 117.234C147.129 117.234 145.68 116.695 144.586 115.617C143.492 114.531 142.902 113.062 142.816 111.211L142.805 110.543ZM146.754 110.789C146.754 111.961 146.938 112.82 147.305 113.367C147.672 113.914 148.215 114.188 148.934 114.188C150.34 114.188 151.059 113.105 151.09 110.941V110.543C151.09 108.27 150.363 107.133 148.91 107.133C147.59 107.133 146.875 108.113 146.766 110.074L146.754 110.789ZM168.551 110.754C168.551 112.723 168.105 114.297 167.215 115.477C166.332 116.648 165.137 117.234 163.629 117.234C162.465 117.234 161.508 116.809 160.758 115.957V121.875H156.809V104.32H160.5L160.617 105.492C161.375 104.555 162.371 104.086 163.605 104.086C165.168 104.086 166.383 104.664 167.25 105.82C168.117 106.969 168.551 108.551 168.551 110.566V110.754ZM164.602 110.508C164.602 108.258 163.945 107.133 162.633 107.133C161.695 107.133 161.07 107.469 160.758 108.141V113.133C161.102 113.836 161.734 114.188 162.656 114.188C163.914 114.188 164.562 113.102 164.602 110.93V110.508ZM190.934 108.82C190.934 110.398 190.672 111.777 190.148 112.957C189.625 114.129 188.902 115.07 187.98 115.781L190.734 117.961L188.191 120.117L184.523 117.164C184.18 117.211 183.836 117.234 183.492 117.234C182.039 117.234 180.75 116.898 179.625 116.227C178.5 115.555 177.621 114.594 176.988 113.344C176.363 112.094 176.039 110.656 176.016 109.031V108.129C176.016 106.449 176.32 104.973 176.93 103.699C177.547 102.426 178.422 101.441 179.555 100.746C180.695 100.051 182 99.7031 183.469 99.7031C184.914 99.7031 186.203 100.047 187.336 100.734C188.469 101.422 189.348 102.402 189.973 103.676C190.605 104.941 190.926 106.395 190.934 108.035V108.82ZM186.75 108.105C186.75 106.41 186.465 105.125 185.895 104.25C185.332 103.367 184.523 102.926 183.469 102.926C182.383 102.926 181.566 103.359 181.02 104.227C180.473 105.094 180.195 106.363 180.188 108.035V108.82C180.188 110.5 180.465 111.789 181.02 112.688C181.574 113.578 182.398 114.023 183.492 114.023C184.539 114.023 185.34 113.582 185.895 112.699C186.457 111.816 186.742 110.547 186.75 108.891V108.105ZM200.402 115.629C199.566 116.699 198.438 117.234 197.016 117.234C195.625 117.234 194.57 116.832 193.852 116.027C193.141 115.215 192.785 114.051 192.785 112.535V104.32H196.734V112.559C196.734 113.645 197.262 114.188 198.316 114.188C199.223 114.188 199.867 113.863 200.25 113.215V104.32H204.223V117H200.52L200.402 115.629ZM210.562 117H206.602V104.32H210.562V117ZM206.367 101.051C206.367 100.488 206.57 100.027 206.977 99.668C207.383 99.3086 207.91 99.1289 208.559 99.1289C209.207 99.1289 209.734 99.3086 210.141 99.668C210.547 100.027 210.75 100.488 210.75 101.051C210.75 101.613 210.547 102.074 210.141 102.434C209.734 102.793 209.207 102.973 208.559 102.973C207.91 102.973 207.383 102.793 206.977 102.434C206.57 102.074 206.367 101.613 206.367 101.051ZM217.664 113.953H223.441V117H212.672V114.797L218.297 107.367H212.918V104.32H223.312V106.453L217.664 113.953Z" fill="white" fill-opacity="0.9"/>
<path d="M129.617 186.965C128.921 187.785 127.931 188.195 126.648 188.195C125.503 188.195 124.633 187.86 124.041 187.189C123.455 186.519 123.162 185.549 123.162 184.279V177.434H125.535V184.25C125.535 185.591 126.092 186.262 127.205 186.262C128.357 186.262 129.135 185.848 129.539 185.021V177.434H131.912V188H129.676L129.617 186.965ZM136.531 177.434L136.6 178.654C137.381 177.71 138.406 177.238 139.676 177.238C141.876 177.238 142.996 178.498 143.035 181.018V188H140.662V181.154C140.662 180.484 140.516 179.989 140.223 179.67C139.936 179.344 139.464 179.182 138.807 179.182C137.85 179.182 137.137 179.615 136.668 180.48V188H134.295V177.434H136.531ZM147.986 188H145.613V177.434H147.986V188ZM145.467 174.689C145.467 174.325 145.581 174.022 145.809 173.781C146.043 173.54 146.375 173.42 146.805 173.42C147.234 173.42 147.566 173.54 147.801 173.781C148.035 174.022 148.152 174.325 148.152 174.689C148.152 175.048 148.035 175.347 147.801 175.588C147.566 175.822 147.234 175.939 146.805 175.939C146.375 175.939 146.043 175.822 145.809 175.588C145.581 175.347 145.467 175.048 145.467 174.689ZM153.553 174.865V177.434H155.418V179.191H153.553V185.09C153.553 185.493 153.631 185.786 153.787 185.969C153.95 186.145 154.236 186.232 154.646 186.232C154.92 186.232 155.197 186.2 155.477 186.135V187.971C154.936 188.12 154.415 188.195 153.914 188.195C152.091 188.195 151.18 187.189 151.18 185.178V179.191H149.441V177.434H151.18V174.865H153.553ZM171.629 188H162.068V186.369L166.805 181.203C167.488 180.441 167.973 179.807 168.26 179.299C168.553 178.785 168.699 178.27 168.699 177.756C168.699 177.079 168.507 176.532 168.123 176.115C167.745 175.699 167.234 175.49 166.59 175.49C165.822 175.49 165.226 175.725 164.803 176.193C164.38 176.662 164.168 177.303 164.168 178.117H161.795C161.795 177.251 161.99 176.473 162.381 175.783C162.778 175.087 163.341 174.546 164.07 174.162C164.806 173.778 165.652 173.586 166.609 173.586C167.99 173.586 169.077 173.934 169.871 174.631C170.672 175.321 171.072 176.278 171.072 177.502C171.072 178.212 170.87 178.957 170.467 179.738C170.07 180.513 169.415 181.395 168.504 182.385L165.027 186.105H171.629V188ZM175.066 185.5C175.509 185.5 175.851 185.627 176.092 185.881C176.333 186.128 176.453 186.441 176.453 186.818C176.453 187.189 176.333 187.499 176.092 187.746C175.851 187.987 175.509 188.107 175.066 188.107C174.643 188.107 174.308 187.987 174.061 187.746C173.813 187.505 173.689 187.196 173.689 186.818C173.689 186.441 173.81 186.128 174.051 185.881C174.292 185.627 174.63 185.5 175.066 185.5ZM185.447 188H183.084V176.584L179.598 177.775V175.773L185.145 173.732H185.447V188ZM201.98 185.5C202.423 185.5 202.765 185.627 203.006 185.881C203.247 186.128 203.367 186.441 203.367 186.818C203.367 187.189 203.247 187.499 203.006 187.746C202.765 187.987 202.423 188.107 201.98 188.107C201.557 188.107 201.222 187.987 200.975 187.746C200.727 187.505 200.604 187.196 200.604 186.818C200.604 186.441 200.724 186.128 200.965 185.881C201.206 185.627 201.544 185.5 201.98 185.5ZM207.566 185.5C208.009 185.5 208.351 185.627 208.592 185.881C208.833 186.128 208.953 186.441 208.953 186.818C208.953 187.189 208.833 187.499 208.592 187.746C208.351 187.987 208.009 188.107 207.566 188.107C207.143 188.107 206.808 187.987 206.561 187.746C206.313 187.505 206.189 187.196 206.189 186.818C206.189 186.441 206.31 186.128 206.551 185.881C206.792 185.627 207.13 185.5 207.566 185.5ZM213.152 185.5C213.595 185.5 213.937 185.627 214.178 185.881C214.419 186.128 214.539 186.441 214.539 186.818C214.539 187.189 214.419 187.499 214.178 187.746C213.937 187.987 213.595 188.107 213.152 188.107C212.729 188.107 212.394 187.987 212.146 187.746C211.899 187.505 211.775 187.196 211.775 186.818C211.775 186.441 211.896 186.128 212.137 185.881C212.378 185.627 212.716 185.5 213.152 185.5ZM218.738 185.5C219.181 185.5 219.523 185.627 219.764 185.881C220.005 186.128 220.125 186.441 220.125 186.818C220.125 187.189 220.005 187.499 219.764 187.746C219.523 187.987 219.181 188.107 218.738 188.107C218.315 188.107 217.98 187.987 217.732 187.746C217.485 187.505 217.361 187.196 217.361 186.818C217.361 186.441 217.482 186.128 217.723 185.881C217.964 185.627 218.302 185.5 218.738 185.5ZM224.324 185.5C224.767 185.5 225.109 185.627 225.35 185.881C225.59 186.128 225.711 186.441 225.711 186.818C225.711 187.189 225.59 187.499 225.35 187.746C225.109 187.987 224.767 188.107 224.324 188.107C223.901 188.107 223.566 187.987 223.318 187.746C223.071 187.505 222.947 187.196 222.947 186.818C222.947 186.441 223.068 186.128 223.309 185.881C223.549 185.627 223.888 185.5 224.324 185.5ZM229.91 185.5C230.353 185.5 230.695 185.627 230.936 185.881C231.176 186.128 231.297 186.441 231.297 186.818C231.297 187.189 231.176 187.499 230.936 187.746C230.695 187.987 230.353 188.107 229.91 188.107C229.487 188.107 229.152 187.987 228.904 187.746C228.657 187.505 228.533 187.196 228.533 186.818C228.533 186.441 228.654 186.128 228.895 185.881C229.135 185.627 229.474 185.5 229.91 185.5ZM129.617 209.965C128.921 210.785 127.931 211.195 126.648 211.195C125.503 211.195 124.633 210.86 124.041 210.189C123.455 209.519 123.162 208.549 123.162 207.279V200.434H125.535V207.25C125.535 208.591 126.092 209.262 127.205 209.262C128.357 209.262 129.135 208.848 129.539 208.021V200.434H131.912V211H129.676L129.617 209.965ZM136.531 200.434L136.6 201.654C137.381 200.71 138.406 200.238 139.676 200.238C141.876 200.238 142.996 201.498 143.035 204.018V211H140.662V204.154C140.662 203.484 140.516 202.989 140.223 202.67C139.936 202.344 139.464 202.182 138.807 202.182C137.85 202.182 137.137 202.615 136.668 203.48V211H134.295V200.434H136.531ZM147.986 211H145.613V200.434H147.986V211ZM145.467 197.689C145.467 197.325 145.581 197.022 145.809 196.781C146.043 196.54 146.375 196.42 146.805 196.42C147.234 196.42 147.566 196.54 147.801 196.781C148.035 197.022 148.152 197.325 148.152 197.689C148.152 198.048 148.035 198.347 147.801 198.588C147.566 198.822 147.234 198.939 146.805 198.939C146.375 198.939 146.043 198.822 145.809 198.588C145.581 198.347 145.467 198.048 145.467 197.689ZM153.553 197.865V200.434H155.418V202.191H153.553V208.09C153.553 208.493 153.631 208.786 153.787 208.969C153.95 209.145 154.236 209.232 154.646 209.232C154.92 209.232 155.197 209.2 155.477 209.135V210.971C154.936 211.12 154.415 211.195 153.914 211.195C152.091 211.195 151.18 210.189 151.18 208.178V202.191H149.441V200.434H151.18V197.865H153.553ZM171.629 211H162.068V209.369L166.805 204.203C167.488 203.441 167.973 202.807 168.26 202.299C168.553 201.785 168.699 201.27 168.699 200.756C168.699 200.079 168.507 199.532 168.123 199.115C167.745 198.699 167.234 198.49 166.59 198.49C165.822 198.49 165.226 198.725 164.803 199.193C164.38 199.662 164.168 200.303 164.168 201.117H161.795C161.795 200.251 161.99 199.473 162.381 198.783C162.778 198.087 163.341 197.546 164.07 197.162C164.806 196.778 165.652 196.586 166.609 196.586C167.99 196.586 169.077 196.934 169.871 197.631C170.672 198.321 171.072 199.278 171.072 200.502C171.072 201.212 170.87 201.957 170.467 202.738C170.07 203.513 169.415 204.395 168.504 205.385L165.027 209.105H171.629V211ZM175.066 208.5C175.509 208.5 175.851 208.627 176.092 208.881C176.333 209.128 176.453 209.441 176.453 209.818C176.453 210.189 176.333 210.499 176.092 210.746C175.851 210.987 175.509 211.107 175.066 211.107C174.643 211.107 174.308 210.987 174.061 210.746C173.813 210.505 173.689 210.196 173.689 209.818C173.689 209.441 173.81 209.128 174.051 208.881C174.292 208.627 174.63 208.5 175.066 208.5ZM188.582 211H179.021V209.369L183.758 204.203C184.441 203.441 184.926 202.807 185.213 202.299C185.506 201.785 185.652 201.27 185.652 200.756C185.652 200.079 185.46 199.532 185.076 199.115C184.699 198.699 184.188 198.49 183.543 198.49C182.775 198.49 182.179 198.725 181.756 199.193C181.333 199.662 181.121 200.303 181.121 201.117H178.748C178.748 200.251 178.943 199.473 179.334 198.783C179.731 198.087 180.294 197.546 181.023 197.162C181.759 196.778 182.605 196.586 183.562 196.586C184.943 196.586 186.03 196.934 186.824 197.631C187.625 198.321 188.025 199.278 188.025 200.502C188.025 201.212 187.824 201.957 187.42 202.738C187.023 203.513 186.368 204.395 185.457 205.385L181.98 209.105H188.582V211ZM201.98 208.5C202.423 208.5 202.765 208.627 203.006 208.881C203.247 209.128 203.367 209.441 203.367 209.818C203.367 210.189 203.247 210.499 203.006 210.746C202.765 210.987 202.423 211.107 201.98 211.107C201.557 211.107 201.222 210.987 200.975 210.746C200.727 210.505 200.604 210.196 200.604 209.818C200.604 209.441 200.724 209.128 200.965 208.881C201.206 208.627 201.544 208.5 201.98 208.5ZM207.566 208.5C208.009 208.5 208.351 208.627 208.592 208.881C208.833 209.128 208.953 209.441 208.953 209.818C208.953 210.189 208.833 210.499 208.592 210.746C208.351 210.987 208.009 211.107 207.566 211.107C207.143 211.107 206.808 210.987 206.561 210.746C206.313 210.505 206.189 210.196 206.189 209.818C206.189 209.441 206.31 209.128 206.551 208.881C206.792 208.627 207.13 208.5 207.566 208.5ZM213.152 208.5C213.595 208.5 213.937 208.627 214.178 208.881C214.419 209.128 214.539 209.441 214.539 209.818C214.539 210.189 214.419 210.499 214.178 210.746C213.937 210.987 213.595 211.107 213.152 211.107C212.729 211.107 212.394 210.987 212.146 210.746C211.899 210.505 211.775 210.196 211.775 209.818C211.775 209.441 211.896 209.128 212.137 208.881C212.378 208.627 212.716 208.5 213.152 208.5ZM218.738 208.5C219.181 208.5 219.523 208.627 219.764 208.881C220.005 209.128 220.125 209.441 220.125 209.818C220.125 210.189 220.005 210.499 219.764 210.746C219.523 210.987 219.181 211.107 218.738 211.107C218.315 211.107 217.98 210.987 217.732 210.746C217.485 210.505 217.361 210.196 217.361 209.818C217.361 209.441 217.482 209.128 217.723 208.881C217.964 208.627 218.302 208.5 218.738 208.5ZM224.324 208.5C224.767 208.5 225.109 208.627 225.35 208.881C225.59 209.128 225.711 209.441 225.711 209.818C225.711 210.189 225.59 210.499 225.35 210.746C225.109 210.987 224.767 211.107 224.324 211.107C223.901 211.107 223.566 210.987 223.318 210.746C223.071 210.505 222.947 210.196 222.947 209.818C222.947 209.441 223.068 209.128 223.309 208.881C223.549 208.627 223.888 208.5 224.324 208.5ZM229.91 208.5C230.353 208.5 230.695 208.627 230.936 208.881C231.176 209.128 231.297 209.441 231.297 209.818C231.297 210.189 231.176 210.499 230.936 210.746C230.695 210.987 230.353 211.107 229.91 211.107C229.487 211.107 229.152 210.987 228.904 210.746C228.657 210.505 228.533 210.196 228.533 209.818C228.533 209.441 228.654 209.128 228.895 208.881C229.135 208.627 229.474 208.5 229.91 208.5ZM129.617 232.965C128.921 233.785 127.931 234.195 126.648 234.195C125.503 234.195 124.633 233.86 124.041 233.189C123.455 232.519 123.162 231.549 123.162 230.279V223.434H125.535V230.25C125.535 231.591 126.092 232.262 127.205 232.262C128.357 232.262 129.135 231.848 129.539 231.021V223.434H131.912V234H129.676L129.617 232.965ZM136.531 223.434L136.6 224.654C137.381 223.71 138.406 223.238 139.676 223.238C141.876 223.238 142.996 224.498 143.035 227.018V234H140.662V227.154C140.662 226.484 140.516 225.989 140.223 225.67C139.936 225.344 139.464 225.182 138.807 225.182C137.85 225.182 137.137 225.615 136.668 226.48V234H134.295V223.434H136.531ZM147.986 234H145.613V223.434H147.986V234ZM145.467 220.689C145.467 220.325 145.581 220.022 145.809 219.781C146.043 219.54 146.375 219.42 146.805 219.42C147.234 219.42 147.566 219.54 147.801 219.781C148.035 220.022 148.152 220.325 148.152 220.689C148.152 221.048 148.035 221.347 147.801 221.588C147.566 221.822 147.234 221.939 146.805 221.939C146.375 221.939 146.043 221.822 145.809 221.588C145.581 221.347 145.467 221.048 145.467 220.689ZM153.553 220.865V223.434H155.418V225.191H153.553V231.09C153.553 231.493 153.631 231.786 153.787 231.969C153.95 232.145 154.236 232.232 154.646 232.232C154.92 232.232 155.197 232.2 155.477 232.135V233.971C154.936 234.12 154.415 234.195 153.914 234.195C152.091 234.195 151.18 233.189 151.18 231.178V225.191H149.441V223.434H151.18V220.865H153.553ZM171.629 234H162.068V232.369L166.805 227.203C167.488 226.441 167.973 225.807 168.26 225.299C168.553 224.785 168.699 224.27 168.699 223.756C168.699 223.079 168.507 222.532 168.123 222.115C167.745 221.699 167.234 221.49 166.59 221.49C165.822 221.49 165.226 221.725 164.803 222.193C164.38 222.662 164.168 223.303 164.168 224.117H161.795C161.795 223.251 161.99 222.473 162.381 221.783C162.778 221.087 163.341 220.546 164.07 220.162C164.806 219.778 165.652 219.586 166.609 219.586C167.99 219.586 169.077 219.934 169.871 220.631C170.672 221.321 171.072 222.278 171.072 223.502C171.072 224.212 170.87 224.957 170.467 225.738C170.07 226.513 169.415 227.395 168.504 228.385L165.027 232.105H171.629V234ZM175.066 231.5C175.509 231.5 175.851 231.627 176.092 231.881C176.333 232.128 176.453 232.441 176.453 232.818C176.453 233.189 176.333 233.499 176.092 233.746C175.851 233.987 175.509 234.107 175.066 234.107C174.643 234.107 174.308 233.987 174.061 233.746C173.813 233.505 173.689 233.196 173.689 232.818C173.689 232.441 173.81 232.128 174.051 231.881C174.292 231.627 174.63 231.5 175.066 231.5ZM181.766 225.807H183.211C183.94 225.8 184.516 225.611 184.939 225.24C185.369 224.869 185.584 224.332 185.584 223.629C185.584 222.952 185.405 222.428 185.047 222.057C184.695 221.679 184.155 221.49 183.426 221.49C182.788 221.49 182.264 221.676 181.854 222.047C181.443 222.411 181.238 222.89 181.238 223.482H178.865C178.865 222.753 179.057 222.089 179.441 221.49C179.832 220.891 180.372 220.426 181.062 220.094C181.759 219.755 182.537 219.586 183.396 219.586C184.816 219.586 185.929 219.944 186.736 220.66C187.55 221.37 187.957 222.359 187.957 223.629C187.957 224.267 187.752 224.869 187.342 225.436C186.938 225.995 186.414 226.419 185.77 226.705C186.551 226.972 187.143 227.392 187.547 227.965C187.957 228.538 188.162 229.221 188.162 230.016C188.162 231.292 187.723 232.307 186.844 233.062C185.971 233.818 184.822 234.195 183.396 234.195C182.029 234.195 180.91 233.831 180.037 233.102C179.165 232.372 178.729 231.402 178.729 230.191H181.102C181.102 230.816 181.31 231.324 181.727 231.715C182.15 232.105 182.716 232.301 183.426 232.301C184.161 232.301 184.741 232.105 185.164 231.715C185.587 231.324 185.799 230.758 185.799 230.016C185.799 229.267 185.577 228.691 185.135 228.287C184.692 227.883 184.035 227.682 183.162 227.682H181.766V225.807ZM201.98 231.5C202.423 231.5 202.765 231.627 203.006 231.881C203.247 232.128 203.367 232.441 203.367 232.818C203.367 233.189 203.247 233.499 203.006 233.746C202.765 233.987 202.423 234.107 201.98 234.107C201.557 234.107 201.222 233.987 200.975 233.746C200.727 233.505 200.604 233.196 200.604 232.818C200.604 232.441 200.724 232.128 200.965 231.881C201.206 231.627 201.544 231.5 201.98 231.5ZM207.566 231.5C208.009 231.5 208.351 231.627 208.592 231.881C208.833 232.128 208.953 232.441 208.953 232.818C208.953 233.189 208.833 233.499 208.592 233.746C208.351 233.987 208.009 234.107 207.566 234.107C207.143 234.107 206.808 233.987 206.561 233.746C206.313 233.505 206.189 233.196 206.189 232.818C206.189 232.441 206.31 232.128 206.551 231.881C206.792 231.627 207.13 231.5 207.566 231.5ZM213.152 231.5C213.595 231.5 213.937 231.627 214.178 231.881C214.419 232.128 214.539 232.441 214.539 232.818C214.539 233.189 214.419 233.499 214.178 233.746C213.937 233.987 213.595 234.107 213.152 234.107C212.729 234.107 212.394 233.987 212.146 233.746C211.899 233.505 211.775 233.196 211.775 232.818C211.775 232.441 211.896 232.128 212.137 231.881C212.378 231.627 212.716 231.5 213.152 231.5ZM218.738 231.5C219.181 231.5 219.523 231.627 219.764 231.881C220.005 232.128 220.125 232.441 220.125 232.818C220.125 233.189 220.005 233.499 219.764 233.746C219.523 233.987 219.181 234.107 218.738 234.107C218.315 234.107 217.98 233.987 217.732 233.746C217.485 233.505 217.361 233.196 217.361 232.818C217.361 232.441 217.482 232.128 217.723 231.881C217.964 231.627 218.302 231.5 218.738 231.5ZM224.324 231.5C224.767 231.5 225.109 231.627 225.35 231.881C225.59 232.128 225.711 232.441 225.711 232.818C225.711 233.189 225.59 233.499 225.35 233.746C225.109 233.987 224.767 234.107 224.324 234.107C223.901 234.107 223.566 233.987 223.318 233.746C223.071 233.505 222.947 233.196 222.947 232.818C222.947 232.441 223.068 232.128 223.309 231.881C223.549 231.627 223.888 231.5 224.324 231.5ZM229.91 231.5C230.353 231.5 230.695 231.627 230.936 231.881C231.176 232.128 231.297 232.441 231.297 232.818C231.297 233.189 231.176 233.499 230.936 233.746C230.695 233.987 230.353 234.107 229.91 234.107C229.487 234.107 229.152 233.987 228.904 233.746C228.657 233.505 228.533 233.196 228.533 232.818C228.533 232.441 228.654 232.128 228.895 231.881C229.135 231.627 229.474 231.5 229.91 231.5Z" fill="#DF6D4D"/>
</svg>
