<svg width="350" height="350" viewBox="0 0 350 350" fill="none" xmlns="http://www.w3.org/2000/svg">
<rect x="42" y="179" width="30" height="100" rx="5" fill="#DF6D4D" fill-opacity="0.9"/>
<rect x="101" y="152" width="30" height="100" rx="5" fill="#DF6D4D" fill-opacity="0.9"/>
<rect x="160" y="125" width="30" height="100" rx="5" fill="#DF6D4D" fill-opacity="0.9"/>
<rect x="219" y="98" width="30" height="100" rx="5" fill="#DF6D4D" fill-opacity="0.9"/>
<rect x="278" y="71" width="30" height="100" rx="5" fill="#DF6D4D" fill-opacity="0.9"/>
<path d="M58.4902 212H56.127V200.584L52.6406 201.775V199.773L58.1875 197.732H58.4902V212Z" fill="white" fill-opacity="0.95"/>
<path d="M120.625 185H111.064V183.369L115.801 178.203C116.484 177.441 116.969 176.807 117.256 176.299C117.549 175.785 117.695 175.27 117.695 174.756C117.695 174.079 117.503 173.532 117.119 173.115C116.742 172.699 116.23 172.49 115.586 172.49C114.818 172.49 114.222 172.725 113.799 173.193C113.376 173.662 113.164 174.303 113.164 175.117H110.791C110.791 174.251 110.986 173.473 111.377 172.783C111.774 172.087 112.337 171.546 113.066 171.162C113.802 170.778 114.648 170.586 115.605 170.586C116.986 170.586 118.073 170.934 118.867 171.631C119.668 172.321 120.068 173.278 120.068 174.502C120.068 175.212 119.867 175.957 119.463 176.738C119.066 177.513 118.411 178.395 117.5 179.385L114.023 183.105H120.625V185Z" fill="white" fill-opacity="0.95"/>
<path d="M172.809 149.807H174.254C174.983 149.8 175.559 149.611 175.982 149.24C176.412 148.869 176.627 148.332 176.627 147.629C176.627 146.952 176.448 146.428 176.09 146.057C175.738 145.679 175.198 145.49 174.469 145.49C173.831 145.49 173.307 145.676 172.896 146.047C172.486 146.411 172.281 146.89 172.281 147.482H169.908C169.908 146.753 170.1 146.089 170.484 145.49C170.875 144.891 171.415 144.426 172.105 144.094C172.802 143.755 173.58 143.586 174.439 143.586C175.859 143.586 176.972 143.944 177.779 144.66C178.593 145.37 179 146.359 179 147.629C179 148.267 178.795 148.869 178.385 149.436C177.981 149.995 177.457 150.419 176.812 150.705C177.594 150.972 178.186 151.392 178.59 151.965C179 152.538 179.205 153.221 179.205 154.016C179.205 155.292 178.766 156.307 177.887 157.062C177.014 157.818 175.865 158.195 174.439 158.195C173.072 158.195 171.952 157.831 171.08 157.102C170.208 156.372 169.771 155.402 169.771 154.191H172.145C172.145 154.816 172.353 155.324 172.77 155.715C173.193 156.105 173.759 156.301 174.469 156.301C175.204 156.301 175.784 156.105 176.207 155.715C176.63 155.324 176.842 154.758 176.842 154.016C176.842 153.267 176.62 152.691 176.178 152.287C175.735 151.883 175.077 151.682 174.205 151.682H172.809V149.807Z" fill="white" fill-opacity="0.95"/>
<path d="M237.092 125.932H238.859V127.836H237.092V131H234.719V127.836H228.576L228.508 126.391L234.641 116.781H237.092V125.932ZM230.998 125.932H234.719V119.994L234.543 120.307L230.998 125.932Z" fill="white" fill-opacity="0.95"/>
<path d="M288.699 96.9492L289.471 89.7812H297.107V91.832H291.443L291.053 95.2305C291.71 94.8529 292.452 94.6641 293.279 94.6641C294.633 94.6641 295.685 95.097 296.434 95.9629C297.189 96.8288 297.566 97.9941 297.566 99.459C297.566 100.904 297.15 102.057 296.316 102.916C295.483 103.769 294.34 104.195 292.889 104.195C291.587 104.195 290.506 103.827 289.646 103.092C288.794 102.35 288.331 101.373 288.26 100.162H290.555C290.646 100.852 290.893 101.383 291.297 101.754C291.701 102.118 292.228 102.301 292.879 102.301C293.608 102.301 294.174 102.04 294.578 101.52C294.988 100.999 295.193 100.289 295.193 99.3906C295.193 98.5247 294.969 97.8411 294.52 97.3398C294.07 96.832 293.452 96.5781 292.664 96.5781C292.234 96.5781 291.87 96.6367 291.57 96.7539C291.271 96.8646 290.945 97.0859 290.594 97.418L288.699 96.9492Z" fill="white" fill-opacity="0.95"/>
</svg>
