<svg width="350" height="350" viewBox="0 0 350 350" fill="none" xmlns="http://www.w3.org/2000/svg">
<path d="M51.7129 129H41.9668V127.066L46.5664 122.164C47.1979 121.474 47.6634 120.872 47.9629 120.357C48.2689 119.843 48.4219 119.355 48.4219 118.893C48.4219 118.261 48.2624 117.766 47.9434 117.408C47.6243 117.044 47.1686 116.861 46.5762 116.861C45.9382 116.861 45.4336 117.083 45.0625 117.525C44.6979 117.962 44.5156 118.538 44.5156 119.254H41.6836C41.6836 118.388 41.8887 117.597 42.2988 116.881C42.7155 116.165 43.3014 115.605 44.0566 115.201C44.8118 114.791 45.668 114.586 46.625 114.586C48.0898 114.586 49.2259 114.938 50.0332 115.641C50.847 116.344 51.2539 117.337 51.2539 118.619C51.2539 119.322 51.0716 120.038 50.707 120.768C50.3424 121.497 49.7174 122.346 48.832 123.316L45.5996 126.725H51.7129V129ZM62.5723 121.588L64.3496 118.434H67.3672L64.3594 123.609L67.4941 129H64.4668L62.582 125.68L60.707 129H57.6699L60.8047 123.609L57.8066 118.434H60.834L62.5723 121.588ZM80.1895 123.316C79.4538 124.039 78.5944 124.4 77.6113 124.4C76.3548 124.4 75.349 123.971 74.5938 123.111C73.8385 122.245 73.4609 121.08 73.4609 119.615C73.4609 118.684 73.6628 117.831 74.0664 117.057C74.4766 116.275 75.0462 115.67 75.7754 115.24C76.5046 114.804 77.3249 114.586 78.2363 114.586C79.1738 114.586 80.0072 114.82 80.7363 115.289C81.4655 115.758 82.0319 116.432 82.4355 117.311C82.8392 118.189 83.0443 119.195 83.0508 120.328V121.373C83.0508 123.743 82.4616 125.605 81.2832 126.959C80.1048 128.313 78.4349 129.036 76.2734 129.127L75.5801 129.137V126.783L76.2051 126.773C78.6595 126.663 79.9876 125.51 80.1895 123.316ZM78.3047 122.242C78.7604 122.242 79.151 122.125 79.4766 121.891C79.8086 121.656 80.0592 121.373 80.2285 121.041V119.879C80.2285 118.922 80.0462 118.18 79.6816 117.652C79.3171 117.125 78.8288 116.861 78.2168 116.861C77.6504 116.861 77.1849 117.122 76.8203 117.643C76.4557 118.157 76.2734 118.805 76.2734 119.586C76.2734 120.361 76.4492 120.999 76.8008 121.5C77.1589 121.995 77.6602 122.242 78.3047 122.242ZM99.1445 121.715H90.4141V119.41H99.1445V121.715ZM99.1445 125.943H90.4141V123.639H99.1445V125.943ZM108.354 129H105.531V118.121L102.162 119.166V116.871L108.051 114.762H108.354V129ZM122.25 118.561C122.25 119.251 122.077 119.863 121.732 120.396C121.387 120.93 120.912 121.357 120.307 121.676C120.997 122.008 121.544 122.467 121.947 123.053C122.351 123.632 122.553 124.316 122.553 125.104C122.553 126.367 122.123 127.366 121.264 128.102C120.404 128.831 119.236 129.195 117.758 129.195C116.28 129.195 115.108 128.827 114.242 128.092C113.376 127.356 112.943 126.36 112.943 125.104C112.943 124.316 113.145 123.629 113.549 123.043C113.952 122.457 114.496 122.001 115.18 121.676C114.574 121.357 114.099 120.93 113.754 120.396C113.415 119.863 113.246 119.251 113.246 118.561C113.246 117.35 113.65 116.386 114.457 115.67C115.264 114.947 116.361 114.586 117.748 114.586C119.128 114.586 120.222 114.944 121.029 115.66C121.843 116.37 122.25 117.337 122.25 118.561ZM119.721 124.898C119.721 124.28 119.542 123.785 119.184 123.414C118.826 123.043 118.344 122.857 117.738 122.857C117.139 122.857 116.661 123.043 116.303 123.414C115.945 123.779 115.766 124.273 115.766 124.898C115.766 125.504 115.941 125.992 116.293 126.363C116.645 126.734 117.133 126.92 117.758 126.92C118.37 126.92 118.848 126.741 119.193 126.383C119.545 126.025 119.721 125.53 119.721 124.898ZM119.428 118.697C119.428 118.144 119.281 117.701 118.988 117.369C118.695 117.031 118.282 116.861 117.748 116.861C117.221 116.861 116.811 117.024 116.518 117.35C116.225 117.675 116.078 118.124 116.078 118.697C116.078 119.264 116.225 119.719 116.518 120.064C116.811 120.41 117.224 120.582 117.758 120.582C118.292 120.582 118.702 120.41 118.988 120.064C119.281 119.719 119.428 119.264 119.428 118.697ZM44.8379 144.641H46.3418C47.0579 144.641 47.5885 144.462 47.9336 144.104C48.2786 143.745 48.4512 143.27 48.4512 142.678C48.4512 142.105 48.2786 141.659 47.9336 141.34C47.5951 141.021 47.1263 140.861 46.5273 140.861C45.987 140.861 45.5345 141.011 45.1699 141.311C44.8053 141.604 44.623 141.988 44.623 142.463H41.8008C41.8008 141.721 41.9993 141.057 42.3965 140.471C42.8001 139.878 43.36 139.416 44.0762 139.084C44.7988 138.752 45.5931 138.586 46.459 138.586C47.9629 138.586 49.1413 138.947 49.9941 139.67C50.847 140.386 51.2734 141.376 51.2734 142.639C51.2734 143.29 51.0749 143.889 50.6777 144.436C50.2806 144.982 49.7598 145.402 49.1152 145.695C49.916 145.982 50.5117 146.411 50.9023 146.984C51.2995 147.557 51.498 148.234 51.498 149.016C51.498 150.279 51.0358 151.291 50.1113 152.053C49.1934 152.814 47.9759 153.195 46.459 153.195C45.0397 153.195 43.8776 152.821 42.9727 152.072C42.0742 151.324 41.625 150.334 41.625 149.104H44.4473C44.4473 149.637 44.6458 150.074 45.043 150.412C45.4466 150.751 45.9414 150.92 46.5273 150.92C47.1979 150.92 47.722 150.744 48.0996 150.393C48.4837 150.035 48.6758 149.562 48.6758 148.977C48.6758 147.557 47.8945 146.848 46.332 146.848H44.8379V144.641ZM64.2422 145.041H67.7676V147.59H64.2422V151.574H61.5566V147.59H58.0215V145.041H61.5566V141.223H64.2422V145.041ZM74.75 146.008L75.5703 138.781H83.5391V141.135H77.8848L77.5332 144.191C78.2038 143.833 78.9167 143.654 79.6719 143.654C81.026 143.654 82.0872 144.074 82.8555 144.914C83.6237 145.754 84.0078 146.929 84.0078 148.439C84.0078 149.357 83.8125 150.181 83.4219 150.91C83.0378 151.633 82.4844 152.196 81.7617 152.6C81.0391 152.997 80.1862 153.195 79.2031 153.195C78.3438 153.195 77.5462 153.023 76.8105 152.678C76.0749 152.326 75.4922 151.835 75.0625 151.203C74.6393 150.572 74.4147 149.852 74.3887 149.045H77.1816C77.2402 149.637 77.4453 150.1 77.7969 150.432C78.1549 150.757 78.6204 150.92 79.1934 150.92C79.8314 150.92 80.3229 150.692 80.668 150.236C81.013 149.774 81.1855 149.123 81.1855 148.283C81.1855 147.476 80.987 146.857 80.5898 146.428C80.1927 145.998 79.6296 145.783 78.9004 145.783C78.2298 145.783 77.6862 145.959 77.2695 146.311L76.9961 146.564L74.75 146.008ZM99.8867 145.715H91.1562V143.41H99.8867V145.715ZM99.8867 149.943H91.1562V147.639H99.8867V149.943ZM113.822 147.316C113.087 148.039 112.227 148.4 111.244 148.4C109.988 148.4 108.982 147.971 108.227 147.111C107.471 146.245 107.094 145.08 107.094 143.615C107.094 142.684 107.296 141.831 107.699 141.057C108.109 140.275 108.679 139.67 109.408 139.24C110.137 138.804 110.958 138.586 111.869 138.586C112.807 138.586 113.64 138.82 114.369 139.289C115.098 139.758 115.665 140.432 116.068 141.311C116.472 142.189 116.677 143.195 116.684 144.328V145.373C116.684 147.743 116.094 149.605 114.916 150.959C113.738 152.313 112.068 153.036 109.906 153.127L109.213 153.137V150.783L109.838 150.773C112.292 150.663 113.62 149.51 113.822 147.316ZM111.938 146.242C112.393 146.242 112.784 146.125 113.109 145.891C113.441 145.656 113.692 145.373 113.861 145.041V143.879C113.861 142.922 113.679 142.18 113.314 141.652C112.95 141.125 112.462 140.861 111.85 140.861C111.283 140.861 110.818 141.122 110.453 141.643C110.089 142.157 109.906 142.805 109.906 143.586C109.906 144.361 110.082 144.999 110.434 145.5C110.792 145.995 111.293 146.242 111.938 146.242ZM48.8223 177H46V166.121L42.6309 167.166V164.871L48.5195 162.762H48.8223V177ZM61.8008 171.648H63.4121V173.924H61.8008V177H58.9785V173.924H53.1484L53.0215 172.146L58.9492 162.781H61.8008V171.648ZM55.834 171.648H58.9785V166.629L58.793 166.951L55.834 171.648ZM75.5215 172.049H70.0234V169.773H75.5215V172.049ZM85.5215 168.641H87.0254C87.7415 168.641 88.2721 168.462 88.6172 168.104C88.9622 167.745 89.1348 167.27 89.1348 166.678C89.1348 166.105 88.9622 165.659 88.6172 165.34C88.2786 165.021 87.8099 164.861 87.2109 164.861C86.6706 164.861 86.2181 165.011 85.8535 165.311C85.4889 165.604 85.3066 165.988 85.3066 166.463H82.4844C82.4844 165.721 82.6829 165.057 83.0801 164.471C83.4837 163.878 84.0436 163.416 84.7598 163.084C85.4824 162.752 86.2767 162.586 87.1426 162.586C88.6465 162.586 89.8249 162.947 90.6777 163.67C91.5306 164.386 91.957 165.376 91.957 166.639C91.957 167.29 91.7585 167.889 91.3613 168.436C90.9642 168.982 90.4434 169.402 89.7988 169.695C90.5996 169.982 91.1953 170.411 91.5859 170.984C91.9831 171.557 92.1816 172.234 92.1816 173.016C92.1816 174.279 91.7194 175.291 90.7949 176.053C89.877 176.814 88.6595 177.195 87.1426 177.195C85.7233 177.195 84.5612 176.821 83.6562 176.072C82.7578 175.324 82.3086 174.334 82.3086 173.104H85.1309C85.1309 173.637 85.3294 174.074 85.7266 174.412C86.1302 174.751 86.625 174.92 87.2109 174.92C87.8815 174.92 88.4056 174.744 88.7832 174.393C89.1673 174.035 89.3594 173.562 89.3594 172.977C89.3594 171.557 88.5781 170.848 87.0156 170.848H85.5215V168.641ZM108.207 169.715H99.4766V167.41H108.207V169.715ZM108.207 173.943H99.4766V171.639H108.207V173.943ZM122.396 177H119.574V166.121L116.205 167.166V164.871L122.094 162.762H122.396V177ZM133.881 177H131.059V166.121L127.689 167.166V164.871L133.578 162.762H133.881V177ZM53.9492 218.213C53.9492 219.613 53.7018 220.84 53.207 221.895C52.7122 222.949 52.0026 223.763 51.0781 224.336C50.1602 224.909 49.1055 225.195 47.9141 225.195C46.7357 225.195 45.6842 224.912 44.7598 224.346C43.8353 223.779 43.1191 222.972 42.6113 221.924C42.1035 220.869 41.8464 219.658 41.8398 218.291V217.588C41.8398 216.188 42.0905 214.958 42.5918 213.896C43.0996 212.829 43.8125 212.012 44.7305 211.445C45.6549 210.872 46.7096 210.586 47.8945 210.586C49.0794 210.586 50.1309 210.872 51.0488 211.445C51.9733 212.012 52.6862 212.829 53.1875 213.896C53.6953 214.958 53.9492 216.185 53.9492 217.578V218.213ZM50.9805 217.568C50.9805 216.077 50.7135 214.945 50.1797 214.17C49.6458 213.395 48.8841 213.008 47.8945 213.008C46.9115 213.008 46.153 213.392 45.6191 214.16C45.0853 214.922 44.8151 216.042 44.8086 217.52V218.213C44.8086 219.665 45.0755 220.791 45.6094 221.592C46.1432 222.393 46.9115 222.793 47.9141 222.793C48.8971 222.793 49.6523 222.409 50.1797 221.641C50.707 220.866 50.974 219.74 50.9805 218.262V217.568ZM58.4902 214.434L58.5781 215.654C59.3333 214.71 60.3457 214.238 61.6152 214.238C62.735 214.238 63.5684 214.567 64.1152 215.225C64.6621 215.882 64.9421 216.865 64.9551 218.174V225H62.1328V218.242C62.1328 217.643 62.0026 217.21 61.7422 216.943C61.4818 216.67 61.0488 216.533 60.4434 216.533C59.6491 216.533 59.0534 216.872 58.6562 217.549V225H55.834V214.434H58.4902ZM71.9668 225.195C70.4173 225.195 69.1543 224.72 68.1777 223.77C67.2077 222.819 66.7227 221.553 66.7227 219.971V219.697C66.7227 218.636 66.9277 217.689 67.3379 216.855C67.748 216.016 68.3275 215.371 69.0762 214.922C69.8314 214.466 70.6908 214.238 71.6543 214.238C73.0996 214.238 74.2357 214.694 75.0625 215.605C75.8958 216.517 76.3125 217.809 76.3125 219.482V220.635H69.584C69.6751 221.325 69.9486 221.878 70.4043 222.295C70.8665 222.712 71.4492 222.92 72.1523 222.92C73.2396 222.92 74.0892 222.526 74.7012 221.738L76.0879 223.291C75.6647 223.89 75.0918 224.359 74.3691 224.697C73.6465 225.029 72.8457 225.195 71.9668 225.195ZM71.6445 216.523C71.0846 216.523 70.6289 216.712 70.2773 217.09C69.9323 217.467 69.7109 218.008 69.6133 218.711H73.5391V218.486C73.526 217.861 73.3568 217.38 73.0312 217.041C72.7057 216.696 72.2435 216.523 71.6445 216.523ZM94.1641 220.898L96.0781 210.781H98.998L95.8438 225H92.8945L90.5801 215.488L88.2656 225H85.3164L82.1621 210.781H85.082L87.0059 220.879L89.3496 210.781H91.8301L94.1641 220.898ZM106.127 217.08C105.743 217.028 105.404 217.002 105.111 217.002C104.044 217.002 103.344 217.363 103.012 218.086V225H100.189V214.434H102.855L102.934 215.693C103.5 214.723 104.285 214.238 105.287 214.238C105.6 214.238 105.893 214.281 106.166 214.365L106.127 217.08ZM106.703 219.619C106.703 218.571 106.905 217.637 107.309 216.816C107.712 215.996 108.292 215.361 109.047 214.912C109.809 214.463 110.691 214.238 111.693 214.238C113.119 214.238 114.281 214.674 115.18 215.547C116.085 216.419 116.589 217.604 116.693 219.102L116.713 219.824C116.713 221.445 116.26 222.747 115.355 223.73C114.451 224.707 113.236 225.195 111.713 225.195C110.189 225.195 108.972 224.707 108.061 223.73C107.156 222.754 106.703 221.426 106.703 219.746V219.619ZM109.525 219.824C109.525 220.827 109.714 221.595 110.092 222.129C110.469 222.656 111.01 222.92 111.713 222.92C112.396 222.92 112.93 222.66 113.314 222.139C113.699 221.611 113.891 220.771 113.891 219.619C113.891 218.636 113.699 217.874 113.314 217.334C112.93 216.794 112.39 216.523 111.693 216.523C111.003 216.523 110.469 216.794 110.092 217.334C109.714 217.868 109.525 218.698 109.525 219.824ZM121.049 214.434L121.137 215.654C121.892 214.71 122.904 214.238 124.174 214.238C125.294 214.238 126.127 214.567 126.674 215.225C127.221 215.882 127.501 216.865 127.514 218.174V225H124.691V218.242C124.691 217.643 124.561 217.21 124.301 216.943C124.04 216.67 123.607 216.533 123.002 216.533C122.208 216.533 121.612 216.872 121.215 217.549V225H118.393V214.434H121.049ZM129.252 219.639C129.252 218.018 129.636 216.712 130.404 215.723C131.179 214.733 132.221 214.238 133.529 214.238C134.688 214.238 135.59 214.635 136.234 215.43L136.352 214.434H138.91V224.648C138.91 225.573 138.699 226.377 138.275 227.061C137.859 227.744 137.27 228.265 136.508 228.623C135.746 228.981 134.854 229.16 133.832 229.16C133.057 229.16 132.302 229.004 131.566 228.691C130.831 228.385 130.274 227.988 129.896 227.5L131.146 225.781C131.85 226.569 132.702 226.963 133.705 226.963C134.454 226.963 135.036 226.761 135.453 226.357C135.87 225.96 136.078 225.394 136.078 224.658V224.092C135.427 224.827 134.571 225.195 133.51 225.195C132.24 225.195 131.212 224.701 130.424 223.711C129.643 222.715 129.252 221.396 129.252 219.756V219.639ZM132.074 219.844C132.074 220.801 132.266 221.553 132.65 222.1C133.035 222.64 133.562 222.91 134.232 222.91C135.092 222.91 135.707 222.588 136.078 221.943V217.5C135.701 216.855 135.092 216.533 134.252 216.533C133.575 216.533 133.041 216.81 132.65 217.363C132.266 217.917 132.074 218.743 132.074 219.844Z" fill="#82BC70"/>
<path d="M204.713 129H194.967V127.066L199.566 122.164C200.198 121.474 200.663 120.872 200.963 120.357C201.269 119.843 201.422 119.355 201.422 118.893C201.422 118.261 201.262 117.766 200.943 117.408C200.624 117.044 200.169 116.861 199.576 116.861C198.938 116.861 198.434 117.083 198.062 117.525C197.698 117.962 197.516 118.538 197.516 119.254H194.684C194.684 118.388 194.889 117.597 195.299 116.881C195.715 116.165 196.301 115.605 197.057 115.201C197.812 114.791 198.668 114.586 199.625 114.586C201.09 114.586 202.226 114.938 203.033 115.641C203.847 116.344 204.254 117.337 204.254 118.619C204.254 119.322 204.072 120.038 203.707 120.768C203.342 121.497 202.717 122.346 201.832 123.316L198.6 126.725H204.713V129ZM215.572 121.588L217.35 118.434H220.367L217.359 123.609L220.494 129H217.467L215.582 125.68L213.707 129H210.67L213.805 123.609L210.807 118.434H213.834L215.572 121.588ZM233.189 123.316C232.454 124.039 231.594 124.4 230.611 124.4C229.355 124.4 228.349 123.971 227.594 123.111C226.839 122.245 226.461 121.08 226.461 119.615C226.461 118.684 226.663 117.831 227.066 117.057C227.477 116.275 228.046 115.67 228.775 115.24C229.505 114.804 230.325 114.586 231.236 114.586C232.174 114.586 233.007 114.82 233.736 115.289C234.465 115.758 235.032 116.432 235.436 117.311C235.839 118.189 236.044 119.195 236.051 120.328V121.373C236.051 123.743 235.462 125.605 234.283 126.959C233.105 128.313 231.435 129.036 229.273 129.127L228.58 129.137V126.783L229.205 126.773C231.66 126.663 232.988 125.51 233.189 123.316ZM231.305 122.242C231.76 122.242 232.151 122.125 232.477 121.891C232.809 121.656 233.059 121.373 233.229 121.041V119.879C233.229 118.922 233.046 118.18 232.682 117.652C232.317 117.125 231.829 116.861 231.217 116.861C230.65 116.861 230.185 117.122 229.82 117.643C229.456 118.157 229.273 118.805 229.273 119.586C229.273 120.361 229.449 120.999 229.801 121.5C230.159 121.995 230.66 122.242 231.305 122.242ZM252.145 121.715H243.414V119.41H252.145V121.715ZM252.145 125.943H243.414V123.639H252.145V125.943ZM261.354 129H258.531V118.121L255.162 119.166V116.871L261.051 114.762H261.354V129ZM275.25 118.561C275.25 119.251 275.077 119.863 274.732 120.396C274.387 120.93 273.912 121.357 273.307 121.676C273.997 122.008 274.544 122.467 274.947 123.053C275.351 123.632 275.553 124.316 275.553 125.104C275.553 126.367 275.123 127.366 274.264 128.102C273.404 128.831 272.236 129.195 270.758 129.195C269.28 129.195 268.108 128.827 267.242 128.092C266.376 127.356 265.943 126.36 265.943 125.104C265.943 124.316 266.145 123.629 266.549 123.043C266.952 122.457 267.496 122.001 268.18 121.676C267.574 121.357 267.099 120.93 266.754 120.396C266.415 119.863 266.246 119.251 266.246 118.561C266.246 117.35 266.65 116.386 267.457 115.67C268.264 114.947 269.361 114.586 270.748 114.586C272.128 114.586 273.222 114.944 274.029 115.66C274.843 116.37 275.25 117.337 275.25 118.561ZM272.721 124.898C272.721 124.28 272.542 123.785 272.184 123.414C271.826 123.043 271.344 122.857 270.738 122.857C270.139 122.857 269.661 123.043 269.303 123.414C268.945 123.779 268.766 124.273 268.766 124.898C268.766 125.504 268.941 125.992 269.293 126.363C269.645 126.734 270.133 126.92 270.758 126.92C271.37 126.92 271.848 126.741 272.193 126.383C272.545 126.025 272.721 125.53 272.721 124.898ZM272.428 118.697C272.428 118.144 272.281 117.701 271.988 117.369C271.695 117.031 271.282 116.861 270.748 116.861C270.221 116.861 269.811 117.024 269.518 117.35C269.225 117.675 269.078 118.124 269.078 118.697C269.078 119.264 269.225 119.719 269.518 120.064C269.811 120.41 270.224 120.582 270.758 120.582C271.292 120.582 271.702 120.41 271.988 120.064C272.281 119.719 272.428 119.264 272.428 118.697ZM197.838 144.641H199.342C200.058 144.641 200.589 144.462 200.934 144.104C201.279 143.745 201.451 143.27 201.451 142.678C201.451 142.105 201.279 141.659 200.934 141.34C200.595 141.021 200.126 140.861 199.527 140.861C198.987 140.861 198.535 141.011 198.17 141.311C197.805 141.604 197.623 141.988 197.623 142.463H194.801C194.801 141.721 194.999 141.057 195.396 140.471C195.8 139.878 196.36 139.416 197.076 139.084C197.799 138.752 198.593 138.586 199.459 138.586C200.963 138.586 202.141 138.947 202.994 139.67C203.847 140.386 204.273 141.376 204.273 142.639C204.273 143.29 204.075 143.889 203.678 144.436C203.281 144.982 202.76 145.402 202.115 145.695C202.916 145.982 203.512 146.411 203.902 146.984C204.299 147.557 204.498 148.234 204.498 149.016C204.498 150.279 204.036 151.291 203.111 152.053C202.193 152.814 200.976 153.195 199.459 153.195C198.04 153.195 196.878 152.821 195.973 152.072C195.074 151.324 194.625 150.334 194.625 149.104H197.447C197.447 149.637 197.646 150.074 198.043 150.412C198.447 150.751 198.941 150.92 199.527 150.92C200.198 150.92 200.722 150.744 201.1 150.393C201.484 150.035 201.676 149.562 201.676 148.977C201.676 147.557 200.895 146.848 199.332 146.848H197.838V144.641ZM217.242 145.041H220.768V147.59H217.242V151.574H214.557V147.59H211.021V145.041H214.557V141.223H217.242V145.041ZM227.75 146.008L228.57 138.781H236.539V141.135H230.885L230.533 144.191C231.204 143.833 231.917 143.654 232.672 143.654C234.026 143.654 235.087 144.074 235.855 144.914C236.624 145.754 237.008 146.929 237.008 148.439C237.008 149.357 236.812 150.181 236.422 150.91C236.038 151.633 235.484 152.196 234.762 152.6C234.039 152.997 233.186 153.195 232.203 153.195C231.344 153.195 230.546 153.023 229.811 152.678C229.075 152.326 228.492 151.835 228.062 151.203C227.639 150.572 227.415 149.852 227.389 149.045H230.182C230.24 149.637 230.445 150.1 230.797 150.432C231.155 150.757 231.62 150.92 232.193 150.92C232.831 150.92 233.323 150.692 233.668 150.236C234.013 149.774 234.186 149.123 234.186 148.283C234.186 147.476 233.987 146.857 233.59 146.428C233.193 145.998 232.63 145.783 231.9 145.783C231.23 145.783 230.686 145.959 230.27 146.311L229.996 146.564L227.75 146.008ZM252.887 145.715H244.156V143.41H252.887V145.715ZM252.887 149.943H244.156V147.639H252.887V149.943ZM266.822 147.316C266.087 148.039 265.227 148.4 264.244 148.4C262.988 148.4 261.982 147.971 261.227 147.111C260.471 146.245 260.094 145.08 260.094 143.615C260.094 142.684 260.296 141.831 260.699 141.057C261.109 140.275 261.679 139.67 262.408 139.24C263.137 138.804 263.958 138.586 264.869 138.586C265.807 138.586 266.64 138.82 267.369 139.289C268.098 139.758 268.665 140.432 269.068 141.311C269.472 142.189 269.677 143.195 269.684 144.328V145.373C269.684 147.743 269.094 149.605 267.916 150.959C266.738 152.313 265.068 153.036 262.906 153.127L262.213 153.137V150.783L262.838 150.773C265.292 150.663 266.62 149.51 266.822 147.316ZM264.938 146.242C265.393 146.242 265.784 146.125 266.109 145.891C266.441 145.656 266.692 145.373 266.861 145.041V143.879C266.861 142.922 266.679 142.18 266.314 141.652C265.95 141.125 265.462 140.861 264.85 140.861C264.283 140.861 263.818 141.122 263.453 141.643C263.089 142.157 262.906 142.805 262.906 143.586C262.906 144.361 263.082 144.999 263.434 145.5C263.792 145.995 264.293 146.242 264.938 146.242ZM281.91 147.219C281.91 145.728 282.109 144.309 282.506 142.961C282.903 141.613 283.489 140.422 284.264 139.387C285.038 138.345 285.878 137.622 286.783 137.219L287.33 138.742C286.38 139.445 285.637 140.533 285.104 142.004C284.57 143.475 284.303 145.194 284.303 147.16V147.463C284.303 149.436 284.566 151.161 285.094 152.639C285.621 154.117 286.367 155.22 287.33 155.949L286.783 157.443C285.898 157.046 285.071 156.343 284.303 155.334C283.541 154.331 282.958 153.173 282.555 151.857C282.151 150.542 281.936 149.169 281.91 147.736V147.219ZM294.088 143.684L296.754 138.781H300.123L295.982 145.832L300.23 153H296.822L294.088 148.02L291.354 153H287.945L292.193 145.832L288.053 138.781H291.422L294.088 143.684ZM306.393 147.443C306.393 148.915 306.181 150.331 305.758 151.691C305.335 153.052 304.726 154.253 303.932 155.295C303.137 156.337 302.288 157.053 301.383 157.443L300.836 155.949C301.76 155.253 302.49 154.178 303.023 152.727C303.557 151.275 303.834 149.605 303.854 147.717V147.199C303.854 145.253 303.587 143.537 303.053 142.053C302.525 140.568 301.786 139.455 300.836 138.713L301.383 137.219C302.268 137.603 303.102 138.299 303.883 139.309C304.671 140.318 305.279 141.493 305.709 142.834C306.145 144.175 306.373 145.565 306.393 147.004V147.443ZM201.822 177H199V166.121L195.631 167.166V164.871L201.52 162.762H201.822V177ZM214.801 171.648H216.412V173.924H214.801V177H211.979V173.924H206.148L206.021 172.146L211.949 162.781H214.801V171.648ZM208.834 171.648H211.979V166.629L211.793 166.951L208.834 171.648ZM228.521 172.049H223.023V169.773H228.521V172.049ZM238.521 168.641H240.025C240.742 168.641 241.272 168.462 241.617 168.104C241.962 167.745 242.135 167.27 242.135 166.678C242.135 166.105 241.962 165.659 241.617 165.34C241.279 165.021 240.81 164.861 240.211 164.861C239.671 164.861 239.218 165.011 238.854 165.311C238.489 165.604 238.307 165.988 238.307 166.463H235.484C235.484 165.721 235.683 165.057 236.08 164.471C236.484 163.878 237.044 163.416 237.76 163.084C238.482 162.752 239.277 162.586 240.143 162.586C241.646 162.586 242.825 162.947 243.678 163.67C244.531 164.386 244.957 165.376 244.957 166.639C244.957 167.29 244.758 167.889 244.361 168.436C243.964 168.982 243.443 169.402 242.799 169.695C243.6 169.982 244.195 170.411 244.586 170.984C244.983 171.557 245.182 172.234 245.182 173.016C245.182 174.279 244.719 175.291 243.795 176.053C242.877 176.814 241.66 177.195 240.143 177.195C238.723 177.195 237.561 176.821 236.656 176.072C235.758 175.324 235.309 174.334 235.309 173.104H238.131C238.131 173.637 238.329 174.074 238.727 174.412C239.13 174.751 239.625 174.92 240.211 174.92C240.882 174.92 241.406 174.744 241.783 174.393C242.167 174.035 242.359 173.562 242.359 172.977C242.359 171.557 241.578 170.848 240.016 170.848H238.521V168.641ZM261.207 169.715H252.477V167.41H261.207V169.715ZM261.207 173.943H252.477V171.639H261.207V173.943ZM275.396 177H272.574V166.121L269.205 167.166V164.871L275.094 162.762H275.396V177ZM286.881 177H284.059V166.121L280.689 167.166V164.871L286.578 162.762H286.881V177ZM206.949 218.213C206.949 219.613 206.702 220.84 206.207 221.895C205.712 222.949 205.003 223.763 204.078 224.336C203.16 224.909 202.105 225.195 200.914 225.195C199.736 225.195 198.684 224.912 197.76 224.346C196.835 223.779 196.119 222.972 195.611 221.924C195.104 220.869 194.846 219.658 194.84 218.291V217.588C194.84 216.188 195.09 214.958 195.592 213.896C196.1 212.829 196.812 212.012 197.73 211.445C198.655 210.872 199.71 210.586 200.895 210.586C202.079 210.586 203.131 210.872 204.049 211.445C204.973 212.012 205.686 212.829 206.188 213.896C206.695 214.958 206.949 216.185 206.949 217.578V218.213ZM203.98 217.568C203.98 216.077 203.714 214.945 203.18 214.17C202.646 213.395 201.884 213.008 200.895 213.008C199.911 213.008 199.153 213.392 198.619 214.16C198.085 214.922 197.815 216.042 197.809 217.52V218.213C197.809 219.665 198.076 220.791 198.609 221.592C199.143 222.393 199.911 222.793 200.914 222.793C201.897 222.793 202.652 222.409 203.18 221.641C203.707 220.866 203.974 219.74 203.98 218.262V217.568ZM211.49 214.434L211.578 215.654C212.333 214.71 213.346 214.238 214.615 214.238C215.735 214.238 216.568 214.567 217.115 215.225C217.662 215.882 217.942 216.865 217.955 218.174V225H215.133V218.242C215.133 217.643 215.003 217.21 214.742 216.943C214.482 216.67 214.049 216.533 213.443 216.533C212.649 216.533 212.053 216.872 211.656 217.549V225H208.834V214.434H211.49ZM224.967 225.195C223.417 225.195 222.154 224.72 221.178 223.77C220.208 222.819 219.723 221.553 219.723 219.971V219.697C219.723 218.636 219.928 217.689 220.338 216.855C220.748 216.016 221.327 215.371 222.076 214.922C222.831 214.466 223.691 214.238 224.654 214.238C226.1 214.238 227.236 214.694 228.062 215.605C228.896 216.517 229.312 217.809 229.312 219.482V220.635H222.584C222.675 221.325 222.949 221.878 223.404 222.295C223.867 222.712 224.449 222.92 225.152 222.92C226.24 222.92 227.089 222.526 227.701 221.738L229.088 223.291C228.665 223.89 228.092 224.359 227.369 224.697C226.646 225.029 225.846 225.195 224.967 225.195ZM224.645 216.523C224.085 216.523 223.629 216.712 223.277 217.09C222.932 217.467 222.711 218.008 222.613 218.711H226.539V218.486C226.526 217.861 226.357 217.38 226.031 217.041C225.706 216.696 225.243 216.523 224.645 216.523ZM247.164 220.898L249.078 210.781H251.998L248.844 225H245.895L243.58 215.488L241.266 225H238.316L235.162 210.781H238.082L240.006 220.879L242.35 210.781H244.83L247.164 220.898ZM259.127 217.08C258.743 217.028 258.404 217.002 258.111 217.002C257.044 217.002 256.344 217.363 256.012 218.086V225H253.189V214.434H255.855L255.934 215.693C256.5 214.723 257.285 214.238 258.287 214.238C258.6 214.238 258.893 214.281 259.166 214.365L259.127 217.08ZM259.703 219.619C259.703 218.571 259.905 217.637 260.309 216.816C260.712 215.996 261.292 215.361 262.047 214.912C262.809 214.463 263.691 214.238 264.693 214.238C266.119 214.238 267.281 214.674 268.18 215.547C269.085 216.419 269.589 217.604 269.693 219.102L269.713 219.824C269.713 221.445 269.26 222.747 268.355 223.73C267.451 224.707 266.236 225.195 264.713 225.195C263.189 225.195 261.972 224.707 261.061 223.73C260.156 222.754 259.703 221.426 259.703 219.746V219.619ZM262.525 219.824C262.525 220.827 262.714 221.595 263.092 222.129C263.469 222.656 264.01 222.92 264.713 222.92C265.396 222.92 265.93 222.66 266.314 222.139C266.699 221.611 266.891 220.771 266.891 219.619C266.891 218.636 266.699 217.874 266.314 217.334C265.93 216.794 265.39 216.523 264.693 216.523C264.003 216.523 263.469 216.794 263.092 217.334C262.714 217.868 262.525 218.698 262.525 219.824ZM274.049 214.434L274.137 215.654C274.892 214.71 275.904 214.238 277.174 214.238C278.294 214.238 279.127 214.567 279.674 215.225C280.221 215.882 280.501 216.865 280.514 218.174V225H277.691V218.242C277.691 217.643 277.561 217.21 277.301 216.943C277.04 216.67 276.607 216.533 276.002 216.533C275.208 216.533 274.612 216.872 274.215 217.549V225H271.393V214.434H274.049ZM282.252 219.639C282.252 218.018 282.636 216.712 283.404 215.723C284.179 214.733 285.221 214.238 286.529 214.238C287.688 214.238 288.59 214.635 289.234 215.43L289.352 214.434H291.91V224.648C291.91 225.573 291.699 226.377 291.275 227.061C290.859 227.744 290.27 228.265 289.508 228.623C288.746 228.981 287.854 229.16 286.832 229.16C286.057 229.16 285.302 229.004 284.566 228.691C283.831 228.385 283.274 227.988 282.896 227.5L284.146 225.781C284.85 226.569 285.702 226.963 286.705 226.963C287.454 226.963 288.036 226.761 288.453 226.357C288.87 225.96 289.078 225.394 289.078 224.658V224.092C288.427 224.827 287.571 225.195 286.51 225.195C285.24 225.195 284.212 224.701 283.424 223.711C282.643 222.715 282.252 221.396 282.252 219.756V219.639ZM285.074 219.844C285.074 220.801 285.266 221.553 285.65 222.1C286.035 222.64 286.562 222.91 287.232 222.91C288.092 222.91 288.707 222.588 289.078 221.943V217.5C288.701 216.855 288.092 216.533 287.252 216.533C286.575 216.533 286.041 216.81 285.65 217.363C285.266 217.917 285.074 218.743 285.074 219.844Z" fill="#82BC70"/>
<line x1="170.5" y1="82" x2="170.5" y2="267" stroke="white" stroke-width="3" stroke-dasharray="3 3"/>
</svg>
