<svg width="350" height="350" viewBox="0 0 350 350" fill="none" xmlns="http://www.w3.org/2000/svg">
<path d="M121.855 127H110.16V124.68L115.68 118.797C116.438 117.969 116.996 117.246 117.355 116.629C117.723 116.012 117.906 115.426 117.906 114.871C117.906 114.113 117.715 113.52 117.332 113.09C116.949 112.652 116.402 112.434 115.691 112.434C114.926 112.434 114.32 112.699 113.875 113.23C113.438 113.754 113.219 114.445 113.219 115.305H109.82C109.82 114.266 110.066 113.316 110.559 112.457C111.059 111.598 111.762 110.926 112.668 110.441C113.574 109.949 114.602 109.703 115.75 109.703C117.508 109.703 118.871 110.125 119.84 110.969C120.816 111.812 121.305 113.004 121.305 114.543C121.305 115.387 121.086 116.246 120.648 117.121C120.211 117.996 119.461 119.016 118.398 120.18L114.52 124.27H121.855V127ZM142.867 117.449H147.098V120.508H142.867V125.289H139.645V120.508H135.402V117.449H139.645V112.867H142.867V117.449ZM172.645 127H160.949V124.68L166.469 118.797C167.227 117.969 167.785 117.246 168.145 116.629C168.512 116.012 168.695 115.426 168.695 114.871C168.695 114.113 168.504 113.52 168.121 113.09C167.738 112.652 167.191 112.434 166.48 112.434C165.715 112.434 165.109 112.699 164.664 113.23C164.227 113.754 164.008 114.445 164.008 115.305H160.609C160.609 114.266 160.855 113.316 161.348 112.457C161.848 111.598 162.551 110.926 163.457 110.441C164.363 109.949 165.391 109.703 166.539 109.703C168.297 109.703 169.66 110.125 170.629 110.969C171.605 111.812 172.094 113.004 172.094 114.543C172.094 115.387 171.875 116.246 171.438 117.121C171 117.996 170.25 119.016 169.188 120.18L165.309 124.27H172.645V127ZM197.594 118.258H187.117V115.492H197.594V118.258ZM197.594 123.332H187.117V120.566H197.594V123.332ZM222.391 120.578H224.324V123.309H222.391V127H219.004V123.309H212.008L211.855 121.176L218.969 109.938H222.391V120.578ZM215.23 120.578H219.004V114.555L218.781 114.941L215.23 120.578ZM113.605 172.969H115.41C116.27 172.969 116.906 172.754 117.32 172.324C117.734 171.895 117.941 171.324 117.941 170.613C117.941 169.926 117.734 169.391 117.32 169.008C116.914 168.625 116.352 168.434 115.633 168.434C114.984 168.434 114.441 168.613 114.004 168.973C113.566 169.324 113.348 169.785 113.348 170.355H109.961C109.961 169.465 110.199 168.668 110.676 167.965C111.16 167.254 111.832 166.699 112.691 166.301C113.559 165.902 114.512 165.703 115.551 165.703C117.355 165.703 118.77 166.137 119.793 167.004C120.816 167.863 121.328 169.051 121.328 170.566C121.328 171.348 121.09 172.066 120.613 172.723C120.137 173.379 119.512 173.883 118.738 174.234C119.699 174.578 120.414 175.094 120.883 175.781C121.359 176.469 121.598 177.281 121.598 178.219C121.598 179.734 121.043 180.949 119.934 181.863C118.832 182.777 117.371 183.234 115.551 183.234C113.848 183.234 112.453 182.785 111.367 181.887C110.289 180.988 109.75 179.801 109.75 178.324H113.137C113.137 178.965 113.375 179.488 113.852 179.895C114.336 180.301 114.93 180.504 115.633 180.504C116.438 180.504 117.066 180.293 117.52 179.871C117.98 179.441 118.211 178.875 118.211 178.172C118.211 176.469 117.273 175.617 115.398 175.617H113.605V172.969ZM140.863 174.105L142.996 170.32H146.617L143.008 176.531L146.77 183H143.137L140.875 179.016L138.625 183H134.98L138.742 176.531L135.145 170.32H138.777L140.863 174.105ZM169.246 165.762V168.551H168.918C167.387 168.574 166.152 168.973 165.215 169.746C164.285 170.52 163.727 171.594 163.539 172.969C164.445 172.047 165.59 171.586 166.973 171.586C168.457 171.586 169.637 172.117 170.512 173.18C171.387 174.242 171.824 175.641 171.824 177.375C171.824 178.484 171.582 179.488 171.098 180.387C170.621 181.285 169.941 181.984 169.059 182.484C168.184 182.984 167.191 183.234 166.082 183.234C164.285 183.234 162.832 182.609 161.723 181.359C160.621 180.109 160.07 178.441 160.07 176.355V175.137C160.07 173.285 160.418 171.652 161.113 170.238C161.816 168.816 162.82 167.719 164.125 166.945C165.438 166.164 166.957 165.77 168.684 165.762H169.246ZM165.941 174.305C165.395 174.305 164.898 174.449 164.453 174.738C164.008 175.02 163.68 175.395 163.469 175.863V176.895C163.469 178.027 163.691 178.914 164.137 179.555C164.582 180.188 165.207 180.504 166.012 180.504C166.738 180.504 167.324 180.219 167.77 179.648C168.223 179.07 168.449 178.324 168.449 177.41C168.449 176.48 168.223 175.73 167.77 175.16C167.316 174.59 166.707 174.305 165.941 174.305ZM196.703 174.258H186.227V171.492H196.703V174.258ZM196.703 179.332H186.227V176.566H196.703V179.332ZM219.707 183H216.32V169.945L212.277 171.199V168.445L219.344 165.914H219.707V183ZM236.957 183H225.262V180.68L230.781 174.797C231.539 173.969 232.098 173.246 232.457 172.629C232.824 172.012 233.008 171.426 233.008 170.871C233.008 170.113 232.816 169.52 232.434 169.09C232.051 168.652 231.504 168.434 230.793 168.434C230.027 168.434 229.422 168.699 228.977 169.23C228.539 169.754 228.32 170.445 228.32 171.305H224.922C224.922 170.266 225.168 169.316 225.66 168.457C226.16 167.598 226.863 166.926 227.77 166.441C228.676 165.949 229.703 165.703 230.852 165.703C232.609 165.703 233.973 166.125 234.941 166.969C235.918 167.812 236.406 169.004 236.406 170.543C236.406 171.387 236.188 172.246 235.75 173.121C235.312 173.996 234.562 175.016 233.5 176.18L229.621 180.27H236.957V183ZM120.18 232.578H122.113V235.309H120.18V239H116.793V235.309H109.797L109.645 233.176L116.758 221.938H120.18V232.578ZM113.02 232.578H116.793V226.555L116.57 226.941L113.02 232.578ZM148.598 233.059H142V230.328H148.598V233.059ZM171.355 239H167.969V225.945L163.926 227.199V224.445L170.992 221.914H171.355V239ZM199.773 230.258H189.297V227.492H199.773V230.258ZM199.773 235.332H189.297V232.566H199.773V235.332ZM217.996 228.969H219.801C220.66 228.969 221.297 228.754 221.711 228.324C222.125 227.895 222.332 227.324 222.332 226.613C222.332 225.926 222.125 225.391 221.711 225.008C221.305 224.625 220.742 224.434 220.023 224.434C219.375 224.434 218.832 224.613 218.395 224.973C217.957 225.324 217.738 225.785 217.738 226.355H214.352C214.352 225.465 214.59 224.668 215.066 223.965C215.551 223.254 216.223 222.699 217.082 222.301C217.949 221.902 218.902 221.703 219.941 221.703C221.746 221.703 223.16 222.137 224.184 223.004C225.207 223.863 225.719 225.051 225.719 226.566C225.719 227.348 225.48 228.066 225.004 228.723C224.527 229.379 223.902 229.883 223.129 230.234C224.09 230.578 224.805 231.094 225.273 231.781C225.75 232.469 225.988 233.281 225.988 234.219C225.988 235.734 225.434 236.949 224.324 237.863C223.223 238.777 221.762 239.234 219.941 239.234C218.238 239.234 216.844 238.785 215.758 237.887C214.68 236.988 214.141 235.801 214.141 234.324H217.527C217.527 234.965 217.766 235.488 218.242 235.895C218.727 236.301 219.32 236.504 220.023 236.504C220.828 236.504 221.457 236.293 221.91 235.871C222.371 235.441 222.602 234.875 222.602 234.172C222.602 232.469 221.664 231.617 219.789 231.617H217.996V228.969Z" fill="#DF6D4D"/>
<rect x="65" y="151" width="220" height="48" rx="5" stroke="white" stroke-opacity="0.95" stroke-width="3"/>
<rect x="250.32" y="168.237" width="3.5" height="22" rx="1.75" transform="rotate(-45 250.32 168.237)" fill="white" fill-opacity="0.95"/>
<rect x="253.237" y="183.793" width="3.5" height="22" rx="1.75" transform="rotate(-135 253.237 183.793)" fill="white" fill-opacity="0.95"/>
</svg>
