<svg width="350" height="350" viewBox="0 0 350 350" fill="none" xmlns="http://www.w3.org/2000/svg">
<path d="M110 204L113.368 214.365H124.266L115.449 220.771L118.817 231.135L110 224.729L101.183 231.135L104.551 220.771L95.7342 214.365H106.632L110 204Z" fill="#82BC70"/>
<path d="M74 116L77.3677 126.365H88.2658L79.4491 132.771L82.8168 143.135L74 136.729L65.1832 143.135L68.5509 132.771L59.7342 126.365H70.6323L74 116Z" fill="#82BC70"/>
<path d="M74 204L77.3677 214.365H88.2658L79.4491 220.771L82.8168 231.135L74 224.729L65.1832 231.135L68.5509 220.771L59.7342 214.365H70.6323L74 204Z" fill="#82BC70"/>
<path d="M74 160L77.3677 170.365H88.2658L79.4491 176.771L82.8168 187.135L74 180.729L65.1832 187.135L68.5509 176.771L59.7342 170.365H70.6323L74 160Z" fill="#82BC70"/>
<path d="M110 160L113.368 170.365H124.266L115.449 176.771L118.817 187.135L110 180.729L101.183 187.135L104.551 176.771L95.7342 170.365H106.632L110 160Z" fill="#82BC70"/>
<path d="M146 160L149.368 170.365H160.266L151.449 176.771L154.817 187.135L146 180.729L137.183 187.135L140.551 176.771L131.734 170.365H142.632L146 160Z" fill="#82BC70"/>
<line x1="187.5" y1="82" x2="187.5" y2="267" stroke="white" stroke-width="3" stroke-dasharray="3 3"/>
<path d="M222.822 181H220V170.121L216.631 171.166V168.871L222.52 166.762H222.822V181ZM238.242 173.041H241.768V175.59H238.242V179.574H235.557V175.59H232.021V173.041H235.557V169.223H238.242V173.041ZM251.201 172.641H252.705C253.421 172.641 253.952 172.462 254.297 172.104C254.642 171.745 254.814 171.27 254.814 170.678C254.814 170.105 254.642 169.659 254.297 169.34C253.958 169.021 253.49 168.861 252.891 168.861C252.35 168.861 251.898 169.011 251.533 169.311C251.169 169.604 250.986 169.988 250.986 170.463H248.164C248.164 169.721 248.363 169.057 248.76 168.471C249.163 167.878 249.723 167.416 250.439 167.084C251.162 166.752 251.956 166.586 252.822 166.586C254.326 166.586 255.505 166.947 256.357 167.67C257.21 168.386 257.637 169.376 257.637 170.639C257.637 171.29 257.438 171.889 257.041 172.436C256.644 172.982 256.123 173.402 255.479 173.695C256.279 173.982 256.875 174.411 257.266 174.984C257.663 175.557 257.861 176.234 257.861 177.016C257.861 178.279 257.399 179.291 256.475 180.053C255.557 180.814 254.339 181.195 252.822 181.195C251.403 181.195 250.241 180.821 249.336 180.072C248.438 179.324 247.988 178.334 247.988 177.104H250.811C250.811 177.637 251.009 178.074 251.406 178.412C251.81 178.751 252.305 178.92 252.891 178.92C253.561 178.92 254.085 178.744 254.463 178.393C254.847 178.035 255.039 177.562 255.039 176.977C255.039 175.557 254.258 174.848 252.695 174.848H251.201V172.641ZM270.605 173.041H274.131V175.59H270.605V179.574H267.92V175.59H264.385V173.041H267.92V169.223H270.605V173.041ZM290.439 181H280.693V179.066L285.293 174.164C285.924 173.474 286.39 172.872 286.689 172.357C286.995 171.843 287.148 171.355 287.148 170.893C287.148 170.261 286.989 169.766 286.67 169.408C286.351 169.044 285.895 168.861 285.303 168.861C284.665 168.861 284.16 169.083 283.789 169.525C283.424 169.962 283.242 170.538 283.242 171.254H280.41C280.41 170.388 280.615 169.597 281.025 168.881C281.442 168.165 282.028 167.605 282.783 167.201C283.538 166.791 284.395 166.586 285.352 166.586C286.816 166.586 287.952 166.938 288.76 167.641C289.574 168.344 289.98 169.337 289.98 170.619C289.98 171.322 289.798 172.038 289.434 172.768C289.069 173.497 288.444 174.346 287.559 175.316L284.326 178.725H290.439V181Z" fill="#82BC70"/>
</svg>
