<?xml version="1.0" encoding="UTF-8"?>
<svg width="207px" height="47px" viewBox="0 0 207 47" version="1.1" xmlns="http://www.w3.org/2000/svg" xmlns:xlink="http://www.w3.org/1999/xlink">
    <!-- Generator: Sketch 48 (47235) - http://www.bohemiancoding.com/sketch -->
    <title>ixp_logo</title>
    <desc>Created with Sketch.</desc>
    <defs></defs>
    <g id="Logo-Design" stroke="none" stroke-width="1" fill="none" fill-rule="evenodd">
        <g id="ixp_logo">
            <g id="Group-2">
                <path d="M64.3945312,18 L62.1445312,18 L62.1445312,0.9375 L64.3945312,0.9375 L64.3945312,18 Z M81.6210938,18 L79.359375,18 L70.7695312,4.8515625 L70.7695312,18 L68.5078125,18 L68.5078125,0.9375 L70.7695312,0.9375 L79.3828125,14.1445312 L79.3828125,0.9375 L81.6210938,0.9375 L81.6210938,18 Z M97.40625,2.7890625 L91.921875,2.7890625 L91.921875,18 L89.6835938,18 L89.6835938,2.7890625 L84.2109375,2.7890625 L84.2109375,0.9375 L97.40625,0.9375 L97.40625,2.7890625 Z M109.582031,10.1132812 L102.1875,10.1132812 L102.1875,16.1601562 L110.777344,16.1601562 L110.777344,18 L99.9375,18 L99.9375,0.9375 L110.660156,0.9375 L110.660156,2.7890625 L102.1875,2.7890625 L102.1875,8.2734375 L109.582031,8.2734375 L109.582031,10.1132812 Z M119.835938,11.0976562 L115.828125,11.0976562 L115.828125,18 L113.566406,18 L113.566406,0.9375 L119.214844,0.9375 C121.136728,0.9375 122.615229,1.37499562 123.650391,2.25 C124.685552,3.12500438 125.203125,4.39842914 125.203125,6.0703125 C125.203125,7.13281781 124.916018,8.0585898 124.341797,8.84765625 C123.767575,9.6367227 122.968755,10.2265605 121.945312,10.6171875 L125.953125,17.859375 L125.953125,18 L123.539062,18 L119.835938,11.0976562 Z M115.828125,9.2578125 L119.285156,9.2578125 C120.402349,9.2578125 121.291012,8.96875289 121.951172,8.390625 C122.611331,7.81249711 122.941406,7.03906734 122.941406,6.0703125 C122.941406,5.01561973 122.626956,4.20703406 121.998047,3.64453125 C121.369137,3.08202844 120.460943,2.79687504 119.273438,2.7890625 L115.828125,2.7890625 L115.828125,9.2578125 Z M137.777344,13.546875 L130.628906,13.546875 L129.023438,18 L126.703125,18 L133.21875,0.9375 L135.1875,0.9375 L141.714844,18 L139.40625,18 L137.777344,13.546875 Z M131.308594,11.6953125 L137.109375,11.6953125 L134.203125,3.71484375 L131.308594,11.6953125 Z M156.5625,12.5859375 C156.351561,14.390634 155.685552,15.7831982 154.564453,16.7636719 C153.443354,17.7441455 151.953134,18.234375 150.09375,18.234375 C148.078115,18.234375 146.462897,17.511726 145.248047,16.0664062 C144.033197,14.6210865 143.425781,12.6875121 143.425781,10.265625 L143.425781,8.625 C143.425781,7.03905457 143.708982,5.64453727 144.275391,4.44140625 C144.8418,3.23827523 145.644526,2.31445635 146.683594,1.66992188 C147.722661,1.0253874 148.925774,0.703125 150.292969,0.703125 C152.105478,0.703125 153.558588,1.20897932 154.652344,2.22070312 C155.746099,3.23242693 156.382812,4.63280355 156.5625,6.421875 L154.300781,6.421875 C154.105468,5.0624932 153.681644,4.07812805 153.029297,3.46875 C152.37695,2.85937195 151.46485,2.5546875 150.292969,2.5546875 C148.855462,2.5546875 147.72852,3.08593219 146.912109,4.1484375 C146.095699,5.21094281 145.6875,6.72264645 145.6875,8.68359375 L145.6875,10.3359375 C145.6875,12.1875093 146.074215,13.6601508 146.847656,14.7539062 C147.621098,15.8476617 148.703118,16.3945312 150.09375,16.3945312 C151.343756,16.3945312 152.302731,16.111331 152.970703,15.5449219 C153.638675,14.9785128 154.08203,13.9921945 154.300781,12.5859375 L156.5625,12.5859375 Z M171.421875,2.7890625 L165.9375,2.7890625 L165.9375,18 L163.699219,18 L163.699219,2.7890625 L158.226562,2.7890625 L158.226562,0.9375 L171.421875,0.9375 L171.421875,2.7890625 Z M176.367188,18 L174.117188,18 L174.117188,0.9375 L176.367188,0.9375 L176.367188,18 Z M186.128906,15.0117188 L191.003906,0.9375 L193.464844,0.9375 L187.136719,18 L185.144531,18 L178.828125,0.9375 L181.277344,0.9375 L186.128906,15.0117188 Z M205.394531,10.1132812 L198,10.1132812 L198,16.1601562 L206.589844,16.1601562 L206.589844,18 L195.75,18 L195.75,0.9375 L206.472656,0.9375 L206.472656,2.7890625 L198,2.7890625 L198,8.2734375 L205.394531,8.2734375 L205.394531,10.1132812 Z M65.0390625,39.9882812 L65.0390625,46 L61.5234375,46 L61.5234375,28.9375 L68.1796875,28.9375 C69.4609439,28.9375 70.5878858,29.1718727 71.5605469,29.640625 C72.533208,30.1093773 73.2812474,30.7753863 73.8046875,31.6386719 C74.3281276,32.5019574 74.5898438,33.4843695 74.5898438,34.5859375 C74.5898438,36.2578209 74.0175838,37.5761671 72.8730469,38.5410156 C71.7285099,39.5058642 70.1445414,39.9882812 68.1210938,39.9882812 L65.0390625,39.9882812 Z M65.0390625,37.140625 L68.1796875,37.140625 C69.1093796,37.140625 69.8183569,36.9218772 70.3066406,36.484375 C70.7949243,36.0468728 71.0390625,35.4218791 71.0390625,34.609375 C71.0390625,33.7734333 70.7929712,33.0976588 70.3007812,32.5820312 C69.8085913,32.0664037 69.1289106,31.8007813 68.2617188,31.7851562 L65.0390625,31.7851562 L65.0390625,37.140625 Z M83.3203125,39.7539062 L80.5195312,39.7539062 L80.5195312,46 L77.0039062,46 L77.0039062,28.9375 L83.34375,28.9375 C85.3593851,28.9375 86.914057,29.3867143 88.0078125,30.2851562 C89.101568,31.1835982 89.6484375,32.4531168 89.6484375,34.09375 C89.6484375,35.2578183 89.3964869,36.2285117 88.8925781,37.0058594 C88.3886694,37.783207 87.6250051,38.4023414 86.6015625,38.8632812 L90.2929688,45.8359375 L90.2929688,46 L86.5195312,46 L83.3203125,39.7539062 Z M80.5195312,36.90625 L83.3554688,36.90625 C84.2382857,36.90625 84.9218726,36.6816429 85.40625,36.2324219 C85.8906274,35.7832009 86.1328125,35.1640664 86.1328125,34.375 C86.1328125,33.5703085 85.9042992,32.9375023 85.4472656,32.4765625 C84.9902321,32.0156227 84.2890672,31.7851562 83.34375,31.7851562 L80.5195312,31.7851562 L80.5195312,36.90625 Z M96.0585938,46 L92.5429688,46 L92.5429688,28.9375 L96.0585938,28.9375 L96.0585938,46 Z M113.191406,46 L109.675781,46 L102.832031,34.7734375 L102.832031,46 L99.3164062,46 L99.3164062,28.9375 L102.832031,28.9375 L109.6875,40.1875 L109.6875,28.9375 L113.191406,28.9375 L113.191406,46 Z M129.65625,40.3164062 C129.523437,42.1523529 128.845709,43.597651 127.623047,44.6523438 C126.400385,45.7070365 124.789073,46.234375 122.789062,46.234375 C120.601552,46.234375 118.880866,45.4980542 117.626953,44.0253906 C116.373041,42.552727 115.746094,40.5312629 115.746094,37.9609375 L115.746094,36.9179688 C115.746094,35.2773355 116.035153,33.8320375 116.613281,32.5820312 C117.191409,31.332025 118.017573,30.3730502 119.091797,29.7050781 C120.166021,29.037106 121.414055,28.703125 122.835938,28.703125 C124.804697,28.703125 126.390619,29.2304635 127.59375,30.2851562 C128.796881,31.339849 129.492187,32.820303 129.679688,34.7265625 L126.164062,34.7265625 C126.078125,33.6249945 125.771487,32.8261744 125.244141,32.3300781 C124.716794,31.8339819 123.914068,31.5859375 122.835938,31.5859375 C121.664057,31.5859375 120.787112,32.0058552 120.205078,32.8457031 C119.623044,33.6855511 119.324219,34.9882724 119.308594,36.7539062 L119.308594,38.0429688 C119.308594,39.886728 119.587888,41.2343707 120.146484,42.0859375 C120.705081,42.9375043 121.585931,43.3632812 122.789062,43.3632812 C123.875005,43.3632812 124.685544,43.1152369 125.220703,42.6191406 C125.755862,42.1230444 126.0625,41.3554739 126.140625,40.3164062 L129.65625,40.3164062 Z M135.703125,46 L132.1875,46 L132.1875,28.9375 L135.703125,28.9375 L135.703125,46 Z M142.476562,39.9882812 L142.476562,46 L138.960938,46 L138.960938,28.9375 L145.617188,28.9375 C146.898444,28.9375 148.025386,29.1718727 148.998047,29.640625 C149.970708,30.1093773 150.718747,30.7753863 151.242188,31.6386719 C151.765628,32.5019574 152.027344,33.4843695 152.027344,34.5859375 C152.027344,36.2578209 151.455084,37.5761671 150.310547,38.5410156 C149.16601,39.5058642 147.582041,39.9882812 145.558594,39.9882812 L142.476562,39.9882812 Z M142.476562,37.140625 L145.617188,37.140625 C146.54688,37.140625 147.255857,36.9218772 147.744141,36.484375 C148.232424,36.0468728 148.476562,35.4218791 148.476562,34.609375 C148.476562,33.7734333 148.230471,33.0976588 147.738281,32.5820312 C147.246091,32.0664037 146.566411,31.8007813 145.699219,31.7851562 L142.476562,31.7851562 L142.476562,37.140625 Z M157.957031,43.1757812 L165.421875,43.1757812 L165.421875,46 L154.441406,46 L154.441406,28.9375 L157.957031,28.9375 L157.957031,43.1757812 Z M177.703125,38.6054688 L170.953125,38.6054688 L170.953125,43.1757812 L178.875,43.1757812 L178.875,46 L167.4375,46 L167.4375,28.9375 L178.851562,28.9375 L178.851562,31.7851562 L170.953125,31.7851562 L170.953125,35.8515625 L177.703125,35.8515625 L177.703125,38.6054688 Z M189.785156,41.5234375 C189.785156,40.8593717 189.550784,40.3496112 189.082031,39.9941406 C188.613279,39.6386701 187.769537,39.2636738 186.550781,38.8691406 C185.332025,38.4746074 184.367191,38.0859394 183.65625,37.703125 C181.71874,36.6562448 180.75,35.2461026 180.75,33.4726562 C180.75,32.5507766 181.009763,31.7285192 181.529297,31.0058594 C182.048831,30.2831995 182.794917,29.718752 183.767578,29.3125 C184.740239,28.906248 185.832025,28.703125 187.042969,28.703125 C188.261725,28.703125 189.347651,28.9238259 190.300781,29.3652344 C191.253911,29.8066428 191.994138,30.4296835 192.521484,31.234375 C193.048831,32.0390665 193.3125,32.9531199 193.3125,33.9765625 L189.796875,33.9765625 C189.796875,33.1953086 189.550784,32.5878928 189.058594,32.1542969 C188.566404,31.720701 187.875004,31.5039062 186.984375,31.5039062 C186.124996,31.5039062 185.457034,31.6855451 184.980469,32.0488281 C184.503904,32.4121112 184.265625,32.890622 184.265625,33.484375 C184.265625,34.0390653 184.544919,34.5039044 185.103516,34.8789062 C185.662112,35.2539081 186.48437,35.6054671 187.570312,35.9335938 C189.570323,36.5351593 191.027339,37.2812455 191.941406,38.171875 C192.855473,39.0625045 193.3125,40.1718684 193.3125,41.5 C193.3125,42.9765699 192.753912,44.1347614 191.636719,44.9746094 C190.519526,45.8144573 189.015634,46.234375 187.125,46.234375 C185.812493,46.234375 184.617193,45.994143 183.539062,45.5136719 C182.460932,45.0332007 181.638675,44.3750042 181.072266,43.5390625 C180.505857,42.7031208 180.222656,41.7343805 180.222656,40.6328125 L183.75,40.6328125 C183.75,42.5156344 184.874989,43.4570312 187.125,43.4570312 C187.960942,43.4570312 188.613279,43.2871111 189.082031,42.9472656 C189.550784,42.6074202 189.785156,42.1328155 189.785156,41.5234375 Z" id="INTERACTIVE-PRINCIPL" fill="#2A2E3E"></path>
                <g id="Group" transform="translate(22.500000, 23.500000) scale(1, -1) translate(-22.500000, -23.500000) ">
                    <g id="Color/Mid/Green" transform="translate(0.000000, 14.000000)" fill="#B2DBB8">
                        <rect id="Rectangle-4" x="0" y="0" width="23" height="33"></rect>
                    </g>
                    <g id="Color/Mid/Red" transform="translate(10.000000, 8.000000)" fill="#F0BBAC">
                        <rect id="Rectangle-4" x="0" y="0" width="23" height="33"></rect>
                    </g>
                    <g id="Color/Mid/Blue" transform="translate(22.000000, 0.000000)" fill="#AFDFDE">
                        <rect id="Rectangle-4" x="0" y="0" width="23" height="33"></rect>
                    </g>
                </g>
            </g>
        </g>
    </g>
</svg>