<svg width="350" height="350" viewBox="0 0 350 350" fill="none" xmlns="http://www.w3.org/2000/svg">
<path d="M75.2969 121.07H70.1602L69.1836 124H66.0684L71.3613 109.781H74.0762L79.3984 124H76.2832L75.2969 121.07ZM70.9512 118.697H74.5059L72.7188 113.375L70.9512 118.697ZM80.6875 122.613C80.6875 122.164 80.8372 121.799 81.1367 121.52C81.4427 121.24 81.8236 121.1 82.2793 121.1C82.7415 121.1 83.1224 121.24 83.4219 121.52C83.7279 121.799 83.8809 122.164 83.8809 122.613C83.8809 123.056 83.7311 123.417 83.4316 123.697C83.1322 123.971 82.748 124.107 82.2793 124.107C81.8171 124.107 81.4362 123.971 81.1367 123.697C80.8372 123.417 80.6875 123.056 80.6875 122.613ZM67.2695 170V155.781H72.25C73.9753 155.781 75.2839 156.113 76.1758 156.777C77.0677 157.435 77.5137 158.402 77.5137 159.678C77.5137 160.374 77.3346 160.99 76.9766 161.523C76.6185 162.051 76.1204 162.438 75.4824 162.686C76.2116 162.868 76.7845 163.236 77.2012 163.789C77.6243 164.342 77.8359 165.02 77.8359 165.82C77.8359 167.188 77.3997 168.223 76.5273 168.926C75.6549 169.629 74.4115 169.987 72.7969 170H67.2695ZM70.1992 163.809V167.646H72.709C73.3991 167.646 73.9362 167.484 74.3203 167.158C74.7109 166.826 74.9062 166.37 74.9062 165.791C74.9062 164.489 74.2324 163.828 72.8848 163.809H70.1992ZM70.1992 161.738H72.3672C73.8451 161.712 74.584 161.123 74.584 159.971C74.584 159.326 74.3952 158.864 74.0176 158.584C73.6465 158.298 73.0573 158.154 72.25 158.154H70.1992V161.738ZM80.0039 168.613C80.0039 168.164 80.1536 167.799 80.4531 167.52C80.7591 167.24 81.14 167.1 81.5957 167.1C82.0579 167.1 82.4388 167.24 82.7383 167.52C83.0443 167.799 83.1973 168.164 83.1973 168.613C83.1973 169.056 83.0475 169.417 82.748 169.697C82.4486 169.971 82.0645 170.107 81.5957 170.107C81.1335 170.107 80.7526 169.971 80.4531 169.697C80.1536 169.417 80.0039 169.056 80.0039 168.613ZM78.4316 211.264C78.321 212.794 77.7546 213.998 76.7324 214.877C75.7168 215.756 74.3757 216.195 72.709 216.195C70.8861 216.195 69.4505 215.583 68.4023 214.359C67.3607 213.129 66.8398 211.443 66.8398 209.301V208.432C66.8398 207.064 67.0807 205.86 67.5625 204.818C68.0443 203.777 68.7311 202.979 69.623 202.426C70.5215 201.866 71.5632 201.586 72.748 201.586C74.3887 201.586 75.7103 202.025 76.7129 202.904C77.7155 203.783 78.2949 205.017 78.4512 206.605H75.5215C75.4499 205.688 75.1927 205.023 74.75 204.613C74.3138 204.197 73.6465 203.988 72.748 203.988C71.7715 203.988 71.0391 204.34 70.5508 205.043C70.069 205.74 69.8216 206.824 69.8086 208.295V209.369C69.8086 210.906 70.0397 212.029 70.502 212.738C70.9707 213.448 71.7064 213.803 72.709 213.803C73.6139 213.803 74.2878 213.598 74.7305 213.188C75.1797 212.771 75.4368 212.13 75.502 211.264H78.4316ZM80.3164 214.613C80.3164 214.164 80.4661 213.799 80.7656 213.52C81.0716 213.24 81.4525 213.1 81.9082 213.1C82.3704 213.1 82.7513 213.24 83.0508 213.52C83.3568 213.799 83.5098 214.164 83.5098 214.613C83.5098 215.056 83.36 215.417 83.0605 215.697C82.7611 215.971 82.377 216.107 81.9082 216.107C81.446 216.107 81.0651 215.971 80.7656 215.697C80.4661 215.417 80.3164 215.056 80.3164 214.613Z" fill="#80C5C4"/>
<rect x="96" y="114" width="135" height="10" rx="3" fill="#80C5C4"/>
<rect x="96" y="206" width="99" height="10" rx="3" fill="#80C5C4"/>
<rect x="96" y="160" width="188" height="10" rx="3" fill="#80C5C4"/>
<path d="M255.357 114.684L258.023 109.781H261.393L257.252 116.832L261.5 124H258.092L255.357 119.02L252.623 124H249.215L253.463 116.832L249.322 109.781H252.691L255.357 114.684Z" fill="white"/>
<path d="M217.357 206.684L220.023 201.781H223.393L219.252 208.832L223.5 216H220.092L217.357 211.02L214.623 216H211.215L215.463 208.832L211.322 201.781H214.691L217.357 206.684Z" fill="white"/>
</svg>
