<svg width="350" height="350" viewBox="0 0 350 350" fill="none" xmlns="http://www.w3.org/2000/svg">
<rect x="36.25" y="145.25" width="277.5" height="59.5" rx="3.75" stroke="#82BC70" stroke-width="2.5"/>
<rect x="49" y="156" width="59" height="37" rx="5" fill="#82BC70"/>
<rect x="59" y="170" width="25" height="9" rx="2" fill="white"/>
<path d="M97.5 173.634C98.1667 174.019 98.1667 174.981 97.5 175.366L83.25 183.593C82.5833 183.978 81.75 183.497 81.75 182.727V166.273C81.75 165.503 82.5833 165.022 83.25 165.407L97.5 173.634Z" fill="white"/>
<path d="M143.643 177.27C143.643 176.716 143.447 176.293 143.057 176C142.666 175.701 141.963 175.388 140.947 175.062C139.932 174.73 139.128 174.405 138.535 174.086C136.921 173.214 136.113 172.038 136.113 170.561C136.113 169.792 136.328 169.109 136.758 168.51C137.194 167.904 137.816 167.432 138.623 167.094C139.437 166.755 140.348 166.586 141.357 166.586C142.373 166.586 143.278 166.771 144.072 167.143C144.867 167.507 145.482 168.025 145.918 168.695C146.361 169.366 146.582 170.128 146.582 170.98H143.652C143.652 170.329 143.447 169.825 143.037 169.467C142.627 169.102 142.051 168.92 141.309 168.92C140.592 168.92 140.036 169.073 139.639 169.379C139.242 169.678 139.043 170.076 139.043 170.57C139.043 171.033 139.274 171.42 139.736 171.732C140.205 172.045 140.892 172.338 141.797 172.611C143.464 173.113 144.678 173.734 145.439 174.477C146.201 175.219 146.582 176.143 146.582 177.25C146.582 178.48 146.117 179.447 145.186 180.15C144.255 180.847 143.001 181.195 141.426 181.195C140.332 181.195 139.336 180.997 138.438 180.6C137.539 180.196 136.852 179.646 136.377 178.949C135.908 178.253 135.674 177.445 135.674 176.527H138.613C138.613 178.096 139.551 178.881 141.426 178.881C142.122 178.881 142.666 178.741 143.057 178.461C143.447 178.174 143.643 177.777 143.643 177.27ZM151.367 181H148.535V166H151.367V181ZM156.68 181H153.848V170.434H156.68V181ZM153.682 167.699C153.682 167.276 153.822 166.928 154.102 166.654C154.388 166.381 154.775 166.244 155.264 166.244C155.745 166.244 156.13 166.381 156.416 166.654C156.702 166.928 156.846 167.276 156.846 167.699C156.846 168.129 156.699 168.48 156.406 168.754C156.12 169.027 155.739 169.164 155.264 169.164C154.788 169.164 154.404 169.027 154.111 168.754C153.825 168.48 153.682 168.129 153.682 167.699ZM158.574 175.639C158.574 173.992 158.942 172.68 159.678 171.703C160.42 170.727 161.432 170.238 162.715 170.238C163.743 170.238 164.593 170.622 165.264 171.391V166H168.096V181H165.547L165.41 179.877C164.707 180.756 163.802 181.195 162.695 181.195C161.452 181.195 160.452 180.707 159.697 179.73C158.949 178.747 158.574 177.383 158.574 175.639ZM161.396 175.844C161.396 176.833 161.569 177.592 161.914 178.119C162.259 178.646 162.76 178.91 163.418 178.91C164.29 178.91 164.906 178.542 165.264 177.807V173.637C164.912 172.901 164.303 172.533 163.438 172.533C162.077 172.533 161.396 173.637 161.396 175.844ZM175.146 181.195C173.597 181.195 172.334 180.72 171.357 179.77C170.387 178.819 169.902 177.553 169.902 175.971V175.697C169.902 174.636 170.107 173.689 170.518 172.855C170.928 172.016 171.507 171.371 172.256 170.922C173.011 170.466 173.87 170.238 174.834 170.238C176.279 170.238 177.415 170.694 178.242 171.605C179.076 172.517 179.492 173.809 179.492 175.482V176.635H172.764C172.855 177.325 173.128 177.878 173.584 178.295C174.046 178.712 174.629 178.92 175.332 178.92C176.419 178.92 177.269 178.526 177.881 177.738L179.268 179.291C178.844 179.89 178.271 180.359 177.549 180.697C176.826 181.029 176.025 181.195 175.146 181.195ZM174.824 172.523C174.264 172.523 173.809 172.712 173.457 173.09C173.112 173.467 172.891 174.008 172.793 174.711H176.719V174.486C176.706 173.861 176.536 173.38 176.211 173.041C175.885 172.696 175.423 172.523 174.824 172.523ZM189.463 167.836V170.434H191.27V172.504H189.463V177.777C189.463 178.168 189.538 178.448 189.688 178.617C189.837 178.786 190.124 178.871 190.547 178.871C190.859 178.871 191.136 178.848 191.377 178.803V180.941C190.824 181.111 190.254 181.195 189.668 181.195C187.689 181.195 186.68 180.196 186.641 178.197V172.504H185.098V170.434H186.641V167.836H189.463ZM192.109 175.619C192.109 174.571 192.311 173.637 192.715 172.816C193.118 171.996 193.698 171.361 194.453 170.912C195.215 170.463 196.097 170.238 197.1 170.238C198.525 170.238 199.688 170.674 200.586 171.547C201.491 172.419 201.995 173.604 202.1 175.102L202.119 175.824C202.119 177.445 201.667 178.747 200.762 179.73C199.857 180.707 198.643 181.195 197.119 181.195C195.596 181.195 194.378 180.707 193.467 179.73C192.562 178.754 192.109 177.426 192.109 175.746V175.619ZM194.932 175.824C194.932 176.827 195.12 177.595 195.498 178.129C195.876 178.656 196.416 178.92 197.119 178.92C197.803 178.92 198.337 178.66 198.721 178.139C199.105 177.611 199.297 176.771 199.297 175.619C199.297 174.636 199.105 173.874 198.721 173.334C198.337 172.794 197.796 172.523 197.1 172.523C196.41 172.523 195.876 172.794 195.498 173.334C195.12 173.868 194.932 174.698 194.932 175.824ZM215.166 179.926C214.469 180.772 213.506 181.195 212.275 181.195C211.143 181.195 210.277 180.87 209.678 180.219C209.085 179.568 208.783 178.614 208.77 177.357V170.434H211.592V177.26C211.592 178.36 212.093 178.91 213.096 178.91C214.053 178.91 214.71 178.578 215.068 177.914V170.434H217.9V181H215.244L215.166 179.926ZM222.627 170.434L222.715 171.654C223.47 170.71 224.482 170.238 225.752 170.238C226.872 170.238 227.705 170.567 228.252 171.225C228.799 171.882 229.079 172.865 229.092 174.174V181H226.27V174.242C226.27 173.643 226.139 173.21 225.879 172.943C225.618 172.67 225.186 172.533 224.58 172.533C223.786 172.533 223.19 172.872 222.793 173.549V181H219.971V170.434H222.627ZM234.219 181H231.387V166H234.219V181ZM236.113 175.619C236.113 174.571 236.315 173.637 236.719 172.816C237.122 171.996 237.702 171.361 238.457 170.912C239.219 170.463 240.101 170.238 241.104 170.238C242.529 170.238 243.691 170.674 244.59 171.547C245.495 172.419 245.999 173.604 246.104 175.102L246.123 175.824C246.123 177.445 245.671 178.747 244.766 179.73C243.861 180.707 242.646 181.195 241.123 181.195C239.6 181.195 238.382 180.707 237.471 179.73C236.566 178.754 236.113 177.426 236.113 175.746V175.619ZM238.936 175.824C238.936 176.827 239.124 177.595 239.502 178.129C239.88 178.656 240.42 178.92 241.123 178.92C241.807 178.92 242.34 178.66 242.725 178.139C243.109 177.611 243.301 176.771 243.301 175.619C243.301 174.636 243.109 173.874 242.725 173.334C242.34 172.794 241.8 172.523 241.104 172.523C240.413 172.523 239.88 172.794 239.502 173.334C239.124 173.868 238.936 174.698 238.936 175.824ZM252.256 178.92C252.777 178.92 253.2 178.777 253.525 178.49C253.851 178.204 254.02 177.823 254.033 177.348H256.68C256.673 178.064 256.478 178.721 256.094 179.32C255.71 179.913 255.182 180.375 254.512 180.707C253.848 181.033 253.112 181.195 252.305 181.195C250.794 181.195 249.603 180.717 248.73 179.76C247.858 178.796 247.422 177.468 247.422 175.775V175.59C247.422 173.962 247.855 172.663 248.721 171.693C249.587 170.723 250.775 170.238 252.285 170.238C253.607 170.238 254.665 170.616 255.459 171.371C256.26 172.12 256.667 173.119 256.68 174.369H254.033C254.02 173.822 253.851 173.38 253.525 173.041C253.2 172.696 252.77 172.523 252.236 172.523C251.579 172.523 251.081 172.764 250.742 173.246C250.41 173.721 250.244 174.496 250.244 175.57V175.863C250.244 176.951 250.41 177.732 250.742 178.207C251.074 178.682 251.579 178.92 252.256 178.92ZM262.129 176.762L261.113 177.777V181H258.291V166H261.113V174.311L261.66 173.607L264.365 170.434H267.754L263.936 174.838L268.086 181H264.844L262.129 176.762Z" fill="#82BC70"/>
</svg>
